<svg width="667" height="600" viewBox="0 0 667 600" fill="none" xmlns="http://www.w3.org/2000/svg">
<g clip-path="url(#clip0_445_1881)">
<path d="M350.902 0.399961C346.777 0.399961 343.419 4.37194 343.419 9.25061V424.452C343.419 429.333 346.777 433.303 350.902 433.303H591.897C596.023 433.303 599.381 429.333 599.381 424.452V9.25061C599.381 4.37194 596.023 0.399961 591.897 0.399961H350.902ZM591.897 433.697H350.902C346.593 433.697 343.086 429.549 343.086 424.452V9.25061C343.086 4.15328 346.593 0.00660137 350.902 0.00660137H591.897C596.207 0.00660137 599.714 4.15328 599.714 9.25061V424.452C599.714 429.549 596.207 433.697 591.897 433.697Z" fill="#DADBD8"/>
<path d="M72.9953 0.399961C68.8698 0.399961 65.513 4.37194 65.513 9.25061V424.452C65.513 429.333 68.8698 433.303 72.9953 433.303H313.991C318.116 433.303 321.474 429.333 321.474 424.452V9.25061C321.474 4.37194 318.116 0.399961 313.991 0.399961H72.9953ZM313.991 433.697H72.9953C68.6854 433.697 65.1797 429.549 65.1797 424.452V9.25061C65.1797 4.15328 68.6854 0.00660137 72.9953 0.00660137H313.991C318.3 0.00660137 321.807 4.15328 321.807 9.25061V424.452C321.807 429.549 318.3 433.697 313.991 433.697Z" fill="#DADBD8"/>
<path d="M0 509.318H666.667V508.985H0V509.318Z" fill="#DADBD8"/>
<path d="M68.8984 528.003H90.3119V528.336H68.8984V528.003Z" fill="#DADBD8"/>
<path d="M227.133 524.723H298.506V524.389H227.133V524.723Z" fill="#DADBD8"/>
<path d="M91.6406 540.389H139.973V540.723H91.6406V540.389Z" fill="#DADBD8"/>
<path d="M504.469 524.551H562.056V524.217H504.469V524.551Z" fill="#DADBD8"/>
<path d="M573.938 524.551H582.378V524.217H573.938V524.551Z" fill="#DADBD8"/>
<path d="M421.617 532.857H493.47V532.524H421.617V532.857Z" fill="#DADBD8"/>
<path d="M216.088 7.49756C229.55 1.39889 245.407 7.36559 251.506 20.8269C257.606 34.2883 251.639 50.1456 238.178 56.2442C224.716 62.3442 208.859 56.3776 202.759 42.9162C196.66 29.4549 202.627 13.5976 216.088 7.49756Z" fill="#E7E8E5"/>
<path d="M229.492 33.6642L231.45 39.4375C233.704 38.2708 234.335 36.8188 233.862 35.4188C233.32 33.8241 231.636 33.5575 229.492 33.6642Z" fill="#F3F2F1"/>
<path d="M220.997 28.2285C221.528 29.7912 223.179 30.0232 225.249 29.9406L223.283 24.1379C221.089 25.2832 220.509 26.7872 220.997 28.2285Z" fill="#F3F2F1"/>
<path d="M232.655 42.986L233.894 46.6393L231.219 47.546L229.994 43.934C226.738 44.8206 223.289 44.8313 221.093 43.9353L221.447 40.1433C223.823 40.93 226.374 41.0246 228.802 40.4153L226.594 33.902C222.682 34.242 218.406 34.3833 216.87 29.8566C215.743 26.5326 217.185 22.8673 222.083 20.598L220.834 16.9153L223.51 16.0073L224.738 19.63C227.107 18.9367 229.614 18.8486 232.027 19.3726L231.805 23.1193C229.866 22.7206 227.866 22.7313 225.93 23.1486L228.163 29.734C232.081 29.3806 236.423 29.2286 237.943 33.714C239.067 37.0273 237.591 40.7287 232.67 43.0273L232.655 42.986ZM219.825 10.214C207.891 14.2593 201.497 27.2127 205.542 39.146C209.587 51.0793 222.541 57.474 234.475 53.4286C246.409 49.3833 252.802 36.4286 248.757 24.4953C244.711 12.562 231.758 6.16864 219.825 10.214Z" fill="#F3F2F1"/>
<path d="M609.818 249.887C622.761 254.384 629.606 268.521 625.107 281.464C620.61 294.405 606.473 301.251 593.53 296.753C580.589 292.255 573.743 278.117 578.241 265.176C582.738 252.233 596.877 245.388 609.818 249.887Z" fill="#E7E8E5"/>
<path d="M602.114 276.032L599.742 281.161C602.002 281.817 603.356 281.244 603.93 280.001C604.585 278.584 603.624 277.329 602.114 276.032Z" fill="#F3F2F1"/>
<path d="M599.875 266.952C599.233 268.341 600.193 269.552 601.639 270.818L604.023 265.662C601.817 265.032 600.467 265.672 599.875 266.952Z" fill="#F3F2F1"/>
<path d="M598.281 284.313L596.781 287.56L594.403 286.46L595.887 283.251C593.134 281.767 590.809 279.572 589.905 277.566L592.565 275.245C593.659 277.292 595.313 278.984 597.333 280.125L600.009 274.337C597.163 272.068 594.199 269.432 596.058 265.409C597.425 262.456 600.734 260.913 605.475 262.516L606.987 259.244L609.365 260.343L607.877 263.561C609.913 264.608 611.653 266.149 612.939 268.043L610.398 270.419C609.35 268.913 607.998 267.643 606.431 266.688L603.726 272.538C606.585 274.804 609.601 277.475 607.757 281.46C606.397 284.404 603.041 285.948 598.265 284.351L598.281 284.313ZM610.589 254.095C599.986 249.192 587.415 253.813 582.513 264.417C577.61 275.02 582.231 287.591 592.835 292.493C603.438 297.396 616.009 292.774 620.911 282.17C625.814 271.568 621.193 258.997 610.589 254.095Z" fill="#F3F2F1"/>
<path d="M123.539 425.66C133 428.948 138.003 439.282 134.715 448.744C131.428 458.204 121.093 463.208 111.632 459.92C102.171 456.632 97.1673 446.297 100.455 436.837C103.743 427.376 114.078 422.372 123.539 425.66Z" fill="#E7E8E5"/>
<path d="M117.914 444.771L116.18 448.52C117.832 449 118.82 448.581 119.241 447.672C119.72 446.636 119.016 445.719 117.914 444.771Z" fill="#F3F2F1"/>
<path d="M116.273 438.134C115.804 439.15 116.507 440.034 117.562 440.961L119.306 437.192C117.694 436.73 116.706 437.198 116.273 438.134Z" fill="#F3F2F1"/>
<path d="M115.107 450.826L114.01 453.198L112.272 452.394L113.357 450.049C111.344 448.964 109.644 447.36 108.983 445.893L110.928 444.197C111.727 445.693 112.937 446.929 114.414 447.764L116.37 443.533C114.289 441.873 112.122 439.946 113.482 437.006C114.48 434.848 116.9 433.72 120.365 434.892L121.471 432.498L123.209 433.302L122.121 435.654C123.609 436.421 124.882 437.548 125.822 438.932L123.964 440.669C123.198 439.568 122.21 438.638 121.064 437.941L119.087 442.217C121.176 443.873 123.381 445.826 122.034 448.74C121.039 450.892 118.586 452.021 115.095 450.853L115.107 450.826ZM124.104 428.736C116.353 425.152 107.164 428.53 103.58 436.281C99.9956 444.032 103.374 453.221 111.125 456.805C118.876 460.389 128.065 457.01 131.649 449.26C135.233 441.508 131.855 432.32 124.104 428.736Z" fill="#F3F2F1"/>
<path d="M58.8711 204.673C79.3643 195.387 103.505 204.472 112.791 224.965C122.078 245.459 112.993 269.599 92.4997 278.885C72.0065 288.172 47.8653 279.087 38.5795 258.593C29.2929 238.1 38.3784 213.959 58.8711 204.673Z" fill="#E7E8E5"/>
<path d="M79.2812 244.507L82.2599 253.295C85.6927 251.519 86.6542 249.307 85.9318 247.176C85.1089 244.75 82.5443 244.344 79.2812 244.507Z" fill="#F3F2F1"/>
<path d="M66.3394 236.23C67.1467 238.611 69.6598 238.965 72.8129 238.839L69.8175 230.003C66.479 231.747 65.5962 234.038 66.3394 236.23Z" fill="#F3F2F1"/>
<path d="M84.0863 258.699L85.9712 264.259L81.8989 265.64L80.0347 260.141C75.0779 261.489 69.8264 261.507 66.4827 260.143L67.0232 254.371C70.6399 255.568 74.5232 255.712 78.2186 254.784L74.8571 244.869C68.9019 245.385 62.3915 245.601 60.0551 238.709C58.3394 233.649 60.5342 228.068 67.991 224.615L66.0899 219.007L70.1628 217.627L72.0316 223.14C75.6399 222.085 79.4551 221.951 83.129 222.749L82.7915 228.452C79.8394 227.847 76.7936 227.861 73.8483 228.497L77.2467 238.523C83.2118 237.985 89.8223 237.752 92.1374 244.583C93.8473 249.625 91.6003 255.26 84.1076 258.761L84.0863 258.699ZM64.5524 208.805C46.3852 214.964 36.6503 234.684 42.8092 252.852C48.9675 271.019 68.6884 280.755 86.8556 274.595C105.023 268.436 114.758 248.716 108.599 230.548C102.44 212.381 82.7196 202.647 64.5524 208.805Z" fill="#F3F2F1"/>
<path d="M428.602 126.578H537.051V46.3109H428.602V126.578Z" fill="#E7E8E5"/>
<path d="M436.555 119.785H529.102V53.1045H436.555V119.785Z" fill="white"/>
<path d="M529.099 53.1039H528.765V119.451H436.885V53.4372H529.099V53.1039V52.7705H436.219V120.117H529.432V52.7705H529.099V53.1039Z" fill="#DADBD8"/>
<path d="M428.602 126.578L436.552 119.785V53.1048L428.602 46.3115V126.578Z" fill="#DADBD8"/>
<path d="M537.052 126.578L529.102 119.785V53.1048L537.052 46.3115C537.634 46.5395 537.052 126.578 537.052 126.578Z" fill="#DADBD8"/>
<path d="M452.385 77.125C473.153 77.125 493.923 77.125 514.692 77.125C515.06 77.125 515.359 76.8263 515.359 76.4583C515.359 76.089 515.06 75.7917 514.692 75.7917C493.923 75.7917 473.153 75.7917 452.385 75.7917C452.017 75.7917 451.719 76.089 451.719 76.4583C451.719 76.8263 452.017 77.125 452.385 77.125Z" fill="#DADBD8"/>
<path d="M452.385 84.9453C473.153 84.9453 493.923 84.9453 514.692 84.9453C515.06 84.9453 515.359 84.6466 515.359 84.2786C515.359 83.9106 515.06 83.612 514.692 83.612C493.923 83.612 473.153 83.612 452.385 83.612C452.017 83.612 451.719 83.9106 451.719 84.2786C451.719 84.6466 452.017 84.9453 452.385 84.9453Z" fill="#DADBD8"/>
<path d="M472.37 92.7637C480.75 92.7637 489.13 92.7637 497.51 92.7637C497.878 92.7637 498.176 92.4663 498.176 92.097C498.176 91.729 497.878 91.4303 497.51 91.4303C489.13 91.4303 480.75 91.4303 472.37 91.4303C472.002 91.4303 471.703 91.729 471.703 92.097C471.703 92.4663 472.002 92.7637 472.37 92.7637Z" fill="#DADBD8"/>
<path d="M461.916 102.801C459.07 102.801 456.224 102.801 453.378 102.801C453.01 102.801 452.711 103.1 452.711 103.468C452.711 103.836 453.01 104.135 453.378 104.135C456.224 104.135 459.07 104.135 461.916 104.135C462.284 104.135 462.583 103.836 462.583 103.468C462.583 103.1 462.284 102.801 461.916 102.801Z" fill="#DADBD8"/>
<path d="M511.467 97.8563C514.279 97.8563 516.559 99.9816 516.559 102.603C516.559 105.224 514.279 107.35 511.467 107.35C508.655 107.35 506.375 105.224 506.375 102.603C506.375 99.9816 508.655 97.8563 511.467 97.8563Z" fill="#DADBD8"/>
<path d="M472.37 68.3398C480.75 68.3398 489.13 68.3398 497.51 68.3398C497.878 68.3398 498.176 68.0412 498.176 67.6732C498.176 67.3052 497.878 67.0065 497.51 67.0065C489.13 67.0065 480.75 67.0065 472.37 67.0065C472.002 67.0065 471.703 67.3052 471.703 67.6732C471.703 68.0412 472.002 68.3398 472.37 68.3398Z" fill="#DADBD8"/>
<path d="M611.67 582.195C611.67 591.999 487.054 599.947 333.331 599.947C179.609 599.947 54.9922 591.999 54.9922 582.195C54.9922 572.391 179.609 564.445 333.331 564.445C487.054 564.445 611.67 572.391 611.67 582.195Z" fill="#F3F2F1"/>
<path d="M392.323 209.86C402.487 205.255 414.461 209.76 419.066 219.924C423.671 230.088 419.166 242.061 409.002 246.667C398.838 251.272 386.865 246.767 382.259 236.603C377.654 226.439 382.159 214.467 392.323 209.86Z" fill="#406FBF"/>
<path d="M400.674 248.473C392.986 248.473 385.64 244.062 382.26 236.602C381.032 233.893 380.452 231.054 380.453 228.261C380.458 220.578 384.87 213.238 392.324 209.859C395.029 208.634 397.864 208.054 400.652 208.054C408.34 208.054 415.686 212.465 419.066 219.923C420.294 222.634 420.874 225.471 420.873 228.265C420.868 235.947 416.457 243.289 409.002 246.666C406.297 247.891 403.464 248.473 400.674 248.473ZM400.676 210.993C398.841 210.993 396.977 211.289 395.142 211.91C386.133 214.965 381.304 224.745 384.358 233.755C386.792 240.933 393.493 245.455 400.672 245.455C402.506 245.455 404.37 245.161 406.205 244.539C415.214 241.485 420.042 231.703 416.989 222.694C414.556 215.517 407.854 210.993 400.676 210.993ZM403.746 240.098L402.821 237.37C401.588 237.706 400.318 237.875 399.149 237.875C397.988 237.875 396.926 237.709 396.1 237.371L396.369 234.509C397.382 234.845 398.44 235.014 399.497 235.014C400.31 235.014 401.124 234.914 401.921 234.714L400.254 229.797C399.56 229.857 398.85 229.909 398.157 229.909C395.897 229.909 393.798 229.357 392.912 226.742C392.061 224.231 393.15 221.463 396.848 219.751L395.905 216.97L397.925 216.285L398.852 219.019C399.874 218.721 400.929 218.571 401.985 218.571C402.78 218.571 403.574 218.655 404.356 218.825L404.189 221.654C403.474 221.507 402.749 221.434 402.025 221.434C401.262 221.434 400.501 221.515 399.753 221.677L401.438 226.649C402.15 226.585 402.881 226.529 403.594 226.529C405.852 226.529 407.952 227.081 408.824 229.654C409.672 232.155 408.557 234.95 404.841 236.686L404.83 236.655L405.765 239.413L403.746 240.098ZM403.029 229.601C402.84 229.601 402.645 229.606 402.445 229.617L403.922 233.975C405.625 233.094 406.101 231.997 405.744 230.941C405.385 229.886 404.365 229.601 403.029 229.601ZM397.754 222.423C396.098 223.289 395.661 224.423 396.029 225.511C396.385 226.561 397.409 226.817 398.73 226.817C398.896 226.817 399.065 226.813 399.24 226.805L397.754 222.423Z" fill="#3B69BB"/>
<path d="M403.923 233.975L402.445 229.616C402.645 229.605 402.84 229.6 403.029 229.6C404.365 229.6 405.385 229.885 405.744 230.94C406.101 231.996 405.625 233.093 403.923 233.975Z" fill="#6791D3"/>
<path d="M398.729 226.816C397.408 226.816 396.384 226.56 396.028 225.511C395.66 224.423 396.097 223.288 397.753 222.423L399.239 226.804C399.064 226.812 398.894 226.816 398.729 226.816Z" fill="#6791D3"/>
<path d="M400.675 245.455C393.497 245.455 386.795 240.932 384.362 233.755C381.307 224.744 386.137 214.964 395.146 211.91C396.981 211.288 398.845 210.992 400.679 210.992C407.858 210.992 414.559 215.516 416.993 222.694C420.046 231.703 415.218 241.484 406.209 244.539C404.374 245.16 402.51 245.455 400.675 245.455ZM402.825 237.37L403.75 240.098L405.769 239.412L404.834 236.655L404.845 236.686C408.561 234.95 409.675 232.155 408.827 229.654C407.955 227.08 405.855 226.528 403.598 226.528C402.885 226.528 402.154 226.584 401.442 226.648L399.757 221.676C400.505 221.515 401.266 221.434 402.029 221.434C402.753 221.434 403.478 221.507 404.193 221.654L404.359 218.824C403.578 218.655 402.783 218.571 401.989 218.571C400.933 218.571 399.878 218.72 398.855 219.019L397.929 216.284L395.909 216.97L396.851 219.751C393.154 221.463 392.065 224.231 392.915 226.742C393.802 229.356 395.901 229.908 398.161 229.908C398.854 229.908 399.563 229.856 400.258 229.796L401.925 234.714C401.127 234.914 400.314 235.014 399.501 235.014C398.443 235.014 397.386 234.844 396.373 234.508L396.103 237.371C396.93 237.708 397.991 237.875 399.153 237.875C400.322 237.875 401.591 237.706 402.825 237.37Z" fill="#6791D3"/>
<path d="M379.371 104.643C401.207 106.535 417.374 125.77 415.482 147.606C413.59 169.441 394.355 185.609 372.519 183.717C350.684 181.825 334.516 162.59 336.408 140.754C338.3 118.919 357.535 102.751 379.371 104.643Z" fill="#406FBF"/>
<path d="M375.992 183.867C374.844 183.867 373.688 183.818 372.521 183.717C366.444 183.19 360.806 181.321 355.874 178.425C355.889 178.43 355.897 178.433 355.897 178.433L355.836 171.303C359.834 174.274 364.552 176.405 369.777 177.382C371.88 177.777 373.976 177.966 376.041 177.966C392.008 177.967 406.216 166.614 409.261 150.349C412.698 131.981 400.596 114.303 382.228 110.866C380.125 110.471 378.029 110.282 375.965 110.282C368.366 110.282 361.165 112.853 355.377 117.301L355.317 110.282C355.273 110.307 355.228 110.333 355.181 110.359C361.25 106.626 368.369 104.493 375.902 104.493C377.05 104.493 378.206 104.542 379.373 104.643C400.036 106.434 415.622 123.754 415.634 144.111C415.634 145.267 415.585 146.433 415.484 147.606C413.693 168.275 396.36 183.867 375.992 183.867ZM373.957 168.182L369.84 167.411L370.881 161.853C366.028 160.633 361.56 158.141 359.37 155.387L362.584 150.743C365.084 153.486 368.313 155.461 371.894 156.437L373.77 146.411C368.466 144.009 362.834 141.086 364.138 134.117C365.025 129.381 368.972 125.865 375.884 125.865C376.438 125.865 377.012 125.887 377.604 125.933L378.665 120.263L382.784 121.034L381.74 126.609C385.308 127.435 388.612 129.141 391.35 131.571L388.342 136.254C386.125 134.331 383.53 132.891 380.725 132.026L378.828 142.162C384.152 144.551 389.876 147.509 388.584 154.413C387.697 159.147 383.67 162.687 376.669 162.687C376.129 162.687 375.573 162.666 374.998 162.623L375.01 162.559L373.957 168.182ZM377.696 148.211L376.033 157.097C376.192 157.102 376.349 157.105 376.502 157.105C379.952 157.105 381.684 155.715 382.07 153.653C382.529 151.198 380.545 149.63 377.696 148.211ZM376.209 131.375C372.79 131.375 371.06 132.869 370.66 135.01C370.209 137.417 372.174 138.917 374.912 140.314L376.584 131.381C376.457 131.378 376.332 131.375 376.209 131.375ZM347.961 116.113V116.043C349.977 114.039 352.205 112.254 354.604 110.722C352.494 112.119 349.252 114.961 347.961 116.113Z" fill="#3B69BB"/>
<path d="M376.501 157.105C376.347 157.105 376.19 157.103 376.031 157.097L377.694 148.212C380.543 149.631 382.527 151.199 382.069 153.653C381.682 155.716 379.95 157.105 376.501 157.105Z" fill="#6791D3"/>
<path d="M374.91 140.314C372.173 138.917 370.208 137.417 370.658 135.01C371.058 132.869 372.789 131.376 376.208 131.376C376.33 131.376 376.456 131.378 376.582 131.381L374.91 140.314Z" fill="#6791D3"/>
<path d="M376.039 177.967C373.974 177.967 371.878 177.777 369.775 177.383C364.55 176.405 359.832 174.275 355.834 171.304L355.375 117.301C361.163 112.853 368.364 110.283 375.963 110.283C378.027 110.283 380.123 110.472 382.226 110.867C400.594 114.304 412.696 131.981 409.259 150.349C406.214 166.615 392.006 177.968 376.039 177.967ZM362.582 150.744L359.368 155.388C361.558 158.141 366.026 160.633 370.879 161.853L369.838 167.412L373.955 168.183L375.008 162.56L374.996 162.624C375.571 162.667 376.127 162.688 376.667 162.688C383.668 162.688 387.695 159.148 388.582 154.413C389.874 147.509 384.15 144.552 378.826 142.163L380.723 132.027C383.528 132.892 386.123 134.332 388.34 136.255L391.348 131.572C388.61 129.141 385.306 127.436 381.738 126.609L382.782 121.035L378.663 120.264L377.602 125.933C377.01 125.888 376.436 125.865 375.882 125.865C368.97 125.865 365.023 129.381 364.136 134.117C362.832 141.087 368.464 144.009 373.768 146.412L371.892 156.437C368.311 155.461 365.082 153.487 362.582 150.744Z" fill="#6791D3"/>
<path d="M355.874 178.424C355.493 178.281 350.202 176.236 347.961 172.476V172.317C350.318 174.664 352.976 176.722 355.874 178.424ZM354.604 110.721C354.808 110.585 355.001 110.464 355.181 110.359C354.988 110.477 354.796 110.598 354.604 110.721Z" fill="#A7A9A8"/>
<path d="M355.897 178.432C355.897 178.432 355.889 178.429 355.874 178.424C352.976 176.722 350.318 174.664 347.961 172.317V163.058C350.09 166.212 352.749 169.009 355.836 171.302L355.897 178.432ZM347.961 125.173V116.112C349.252 114.96 352.494 112.118 354.604 110.721C354.796 110.598 354.988 110.477 355.181 110.358C355.228 110.332 355.273 110.306 355.317 110.281L355.377 117.3C352.52 119.494 350.008 122.146 347.961 125.173Z" fill="#2454AC"/>
<path d="M355.836 171.303C352.749 169.009 350.09 166.212 347.961 163.059V125.173C350.008 122.147 352.52 119.495 355.377 117.3L355.836 171.303Z" fill="#466BB1"/>
<path d="M324.188 426.338C323.206 441.819 309.861 453.573 294.381 452.591C278.9 451.61 267.146 438.265 268.128 422.785C269.109 407.303 282.454 395.55 297.936 396.531C313.416 397.513 325.169 410.858 324.188 426.338Z" fill="#406FBF"/>
<path d="M296.185 452.648C295.586 452.648 294.986 452.63 294.381 452.591C279.505 451.648 268.07 439.288 268.07 424.587C268.07 423.99 268.089 423.388 268.128 422.784C268.401 418.476 269.632 414.458 271.6 410.92C271.596 410.93 271.594 410.935 271.594 410.935L276.637 410.775C274.601 413.652 273.172 417.024 272.565 420.738C270.433 433.791 279.285 446.1 292.337 448.232C293.644 448.446 294.945 448.55 296.228 448.55C307.754 448.551 317.913 440.206 319.832 428.46C320.974 421.466 318.962 414.683 314.84 409.567L319.805 409.41C319.784 409.375 319.762 409.338 319.74 409.302C322.598 413.711 324.245 418.954 324.245 424.535C324.245 425.132 324.226 425.734 324.188 426.338C323.245 441.214 310.884 452.648 296.185 452.648ZM305.33 435.254L301.968 433.202C303.293 431.602 304.269 429.742 304.836 427.743L297.633 426.567C296.166 430.046 294.37 433.771 290.324 433.771C289.944 433.771 289.545 433.738 289.124 433.668C285.501 433.078 282.798 429.886 283.093 424.191L283.138 424.199L279.142 423.546L279.621 420.62L283.572 421.266C284.354 417.811 286.045 414.61 287.957 413.015L291.296 415.214C289.396 417.027 288.052 419.344 287.42 421.894L294.544 423.058C296.016 419.598 297.79 415.936 301.85 415.936C302.241 415.936 302.652 415.971 303.085 416.042C306.72 416.635 309.406 419.778 309.096 425.435L313.124 426.094L312.646 429.019L308.685 428.372C308.158 430.91 307.006 433.275 305.33 435.254ZM287.021 424.832C286.99 427.496 288.025 428.798 289.556 429.048C289.705 429.072 289.849 429.084 289.989 429.084C291.484 429.084 292.458 427.73 293.334 425.864L287.021 424.832ZM302.138 420.635C300.676 420.635 299.741 421.972 298.877 423.766L305.224 424.803C305.244 422.206 304.136 420.927 302.56 420.67C302.414 420.646 302.274 420.635 302.138 420.635ZM319.494 408.931C318.784 407.906 317.557 406.492 316.596 405.428H316.72C317.734 406.519 318.664 407.691 319.494 408.931Z" fill="#3B69BB"/>
<path d="M289.984 429.084C289.844 429.084 289.7 429.072 289.551 429.048C288.02 428.797 286.986 427.496 287.016 424.832L293.33 425.864C292.454 427.729 291.479 429.084 289.984 429.084Z" fill="#6791D3"/>
<path d="M305.222 424.803L298.875 423.765C299.739 421.972 300.674 420.635 302.136 420.635C302.272 420.635 302.412 420.645 302.558 420.669C304.134 420.927 305.242 422.205 305.222 424.803Z" fill="#6791D3"/>
<path d="M296.222 448.551C294.939 448.551 293.638 448.447 292.331 448.233C279.279 446.101 270.427 433.792 272.559 420.739C273.166 417.025 274.595 413.653 276.631 410.776L314.834 409.568C318.956 414.684 320.968 421.467 319.826 428.461C317.907 440.207 307.748 448.552 296.222 448.551ZM297.627 426.568L304.83 427.744C304.263 429.743 303.287 431.603 301.962 433.203L305.324 435.255C307 433.276 308.152 430.911 308.679 428.373L312.64 429.02L313.118 426.095L309.09 425.436C309.4 419.779 306.714 416.636 303.079 416.043C302.646 415.972 302.235 415.937 301.844 415.937C297.784 415.937 296.01 419.599 294.538 423.059L287.414 421.895C288.046 419.345 289.39 417.028 291.29 415.215L287.951 413.016C286.039 414.611 284.348 417.812 283.566 421.267L279.615 420.621L279.136 423.547L283.132 424.2L283.087 424.192C282.792 429.887 285.495 433.079 289.118 433.669C289.539 433.739 289.938 433.772 290.318 433.772C294.364 433.772 296.16 430.047 297.627 426.568Z" fill="#6791D3"/>
<path d="M271.594 410.92C271.679 410.673 272.938 407.167 275.367 405.428H275.59C274.05 407.081 272.704 408.924 271.594 410.92ZM319.734 409.301C319.652 409.177 319.571 409.053 319.488 408.931C319.579 409.061 319.662 409.185 319.734 409.301Z" fill="#A7A9A8"/>
<path d="M271.594 410.936C271.594 410.936 271.595 410.93 271.599 410.921C272.71 408.925 274.055 407.082 275.595 405.429H281.847C279.854 406.92 278.091 408.721 276.636 410.776L271.594 410.936ZM314.839 409.568C313.594 408.022 312.158 406.63 310.556 405.429H316.595C317.556 406.493 318.783 407.906 319.494 408.932C319.576 409.054 319.658 409.178 319.739 409.302C319.762 409.338 319.783 409.376 319.804 409.41L314.839 409.568Z" fill="#2454AC"/>
<path d="M276.633 410.775C278.087 408.721 279.85 406.919 281.843 405.429H310.553C312.154 406.63 313.59 408.022 314.835 409.567L276.633 410.775Z" fill="#466BB1"/>
<path d="M106.242 405.428H347.959V50.5318H106.242V405.428Z" fill="#406FBF"/>
<path d="M347.959 405.428H261.788L263.229 398.572H338.505V381.641H347.959V405.428ZM249.072 405.428H212.708L214.164 398.572H250.266L249.072 405.428ZM199.928 405.428H106.242V398.572H201.134L199.928 405.428ZM347.959 366.337H338.505V366.197L339.389 366.194V361.413L338.505 361.398V339.606H347.959V366.337ZM347.959 242.26H338.505V50.5318H347.959V125.173V163.058V172.317V172.476V242.26Z" fill="#7DA6DD"/>
<path d="M96.7891 398.572H338.506V39.8336H96.7891V398.572Z" fill="#406FBF"/>
<path d="M338.507 398.572H263.231L264.904 390.61H329.25V381.642H338.507V398.572ZM250.268 398.572H214.166L215.855 390.61H251.655L250.268 398.572ZM201.136 398.572H96.7891V390.61H202.538L201.136 398.572ZM338.507 366.338H329.25V366.219L338.507 366.198V366.338ZM338.507 361.399L329.25 361.255V339.607H338.507V361.399ZM338.507 242.26H329.25V39.8336H338.507V242.26Z" fill="#A4C3E9"/>
<path d="M87.5312 390.609H329.249V31.8707H87.5312V390.609Z" fill="#406FBF"/>
<path d="M329.248 390.609H264.903L266.788 381.641H329.248V390.609ZM251.653 390.609H215.853L217.745 381.697H217.733L217.745 381.641H253.203L252.391 386.125H252.435L251.653 390.609ZM202.536 390.609H87.5312V31.8707H329.248V242.26H254.648C251.831 242.26 249.611 244.356 248.979 247.261C248.863 247.792 248.803 248.355 248.803 248.941C248.803 249.18 248.813 249.423 248.835 249.668L248.881 250.239H103.269V266.481H250.192L251.428 281.793H139.573V292.755H252.312L253.261 304.52H139.573V315.481H254.147L255.229 328.908H139.573V339.869H296.712L295.335 351.292H211.964V355.537C211.948 355.584 211.939 355.633 211.936 355.683H103.944V371.925H185.952V381.641H204.104L202.941 388.064H202.984L202.536 390.609ZM103.944 105.735V121.976H313.628V105.735H103.944ZM103.944 50.3747V99.4014H212.241V50.3747H103.944ZM329.248 366.337H313.628V366.256L329.248 366.219V366.337ZM329.248 361.255L317.245 361.068L319.551 339.607H326.6H329.248V361.255Z" fill="#CFE0F5"/>
<path d="M103.945 99.4023H212.243V50.3753H103.945V99.4023Z" fill="#9CBEE7"/>
<path d="M119.507 66.3322H109.125V60.2136H137.396V66.3322H127.015V92.6562H119.507V66.3322Z" fill="#406FBF"/>
<path d="M158.812 80.0042L153.67 67.5829L148.524 80.0042H158.812ZM161.176 85.7042H146.114L143.24 92.6562H135.547L150.007 60.2136H157.423L171.928 92.6562H164.051L161.176 85.7042Z" fill="#406FBF"/>
<path d="M194.076 92.6562L186.244 81.3936L178.55 92.6562H169.93L181.934 76.1563L170.532 60.2136H179.06L186.522 70.7349L193.844 60.2136H201.955L190.646 75.8789L202.743 92.6562H194.076Z" fill="#406FBF"/>
<path d="M312.128 66.25H217.648V59.6993H312.128V66.25Z" fill="#406FBF"/>
<path d="M312.128 79.8086H217.648V73.2566H312.128V79.8086Z" fill="#406FBF"/>
<path d="M312.128 93.3652H217.648V86.8159H312.128V93.3652Z" fill="#406FBF"/>
<path d="M103.945 121.977H313.629V105.735H103.945V121.977Z" fill="#9CBEE7"/>
<path d="M185.954 371.926H103.945V355.683H211.938C211.934 355.756 211.943 355.83 211.966 355.899V356.192H212.251C212.264 356.196 212.278 356.2 212.291 356.203H208.598V360.448C208.559 360.564 208.559 360.695 208.598 360.81V361.103H208.883C208.934 361.119 208.99 361.128 209.052 361.128C210.052 361.128 211.051 361.128 212.051 361.128V366.002H257.43H279.75V366.338H185.954V371.926ZM313.63 366.338H279.75L313.63 366.256V366.338Z" fill="#9CBEE7"/>
<path d="M250.196 266.482H103.273V250.24H248.886L250.196 266.482Z" fill="#9CBEE7"/>
<path d="M139.578 292.756H311.766V281.795H139.578V292.756Z" fill="#406FBF"/>
<path d="M139.578 315.482H311.766V304.521H139.578V315.482Z" fill="#406FBF"/>
<path d="M139.578 339.869H311.766V328.908H139.578V339.869Z" fill="#406FBF"/>
<path d="M313.63 236.219C306.628 236.219 299.627 236.219 292.627 236.219C275.938 236.219 259.25 236.219 242.56 236.219C222.395 236.219 202.23 236.219 182.064 236.219C164.632 236.219 147.202 236.219 129.77 236.219C124.021 236.219 118.272 236.219 112.522 236.219C110.729 236.219 108.935 236.219 107.142 236.219C106.249 236.219 105.195 236.064 104.313 236.219H103.945C104.279 236.552 104.612 236.886 104.945 237.219C104.945 225.595 104.945 213.971 104.945 202.346C104.945 183.939 104.945 165.531 104.945 147.124C104.945 142.864 104.945 138.604 104.945 134.346C104.612 134.679 104.279 135.012 103.945 135.346C110.946 135.346 117.947 135.346 124.948 135.346C141.636 135.346 158.326 135.346 175.014 135.346C195.179 135.346 215.344 135.346 235.51 135.346C252.942 135.346 270.372 135.346 287.804 135.346C293.554 135.346 299.303 135.346 305.052 135.346C306.846 135.346 308.639 135.346 310.432 135.346C311.326 135.346 312.379 135.499 313.262 135.346H313.63C313.296 135.012 312.963 134.679 312.63 134.346C312.63 145.97 312.63 157.594 312.63 169.218C312.63 187.626 312.63 206.034 312.63 224.44C312.63 228.7 312.63 232.96 312.63 237.219C312.63 238.506 314.63 238.508 314.63 237.219C314.63 225.595 314.63 213.971 314.63 202.346C314.63 183.939 314.63 165.531 314.63 147.124C314.63 142.864 314.63 138.604 314.63 134.346C314.63 133.804 314.171 133.346 313.63 133.346C306.628 133.346 299.627 133.346 292.627 133.346C275.938 133.346 259.25 133.346 242.56 133.346C222.395 133.346 202.23 133.346 182.064 133.346C164.632 133.346 147.202 133.346 129.77 133.346C124.021 133.346 118.272 133.346 112.522 133.346C109.799 133.346 107.033 133.206 104.313 133.346C104.191 133.351 104.067 133.346 103.945 133.346C103.405 133.346 102.945 133.803 102.945 134.346C102.945 145.97 102.945 157.594 102.945 169.218C102.945 187.626 102.945 206.034 102.945 224.44C102.945 228.7 102.945 232.96 102.945 237.219C102.945 237.76 103.403 238.219 103.945 238.219C110.946 238.219 117.947 238.219 124.948 238.219C141.636 238.219 158.326 238.219 175.014 238.219C195.179 238.219 215.344 238.219 235.51 238.219C252.942 238.219 270.372 238.219 287.804 238.219C293.554 238.219 299.303 238.219 305.052 238.219C307.775 238.219 310.542 238.359 313.262 238.219C313.384 238.212 313.507 238.219 313.63 238.219C314.916 238.219 314.919 236.219 313.63 236.219Z" fill="#17282F"/>
<path d="M250.75 135.947C250.75 162.244 250.75 188.543 250.75 214.84C250.75 222.275 250.75 229.71 250.75 237.143C250.75 238.431 252.75 238.432 252.75 237.143C252.75 210.846 252.75 184.548 252.75 158.25C252.75 150.815 252.75 143.382 252.75 135.947C252.75 134.66 250.75 134.658 250.75 135.947Z" fill="#17282F"/>
<path d="M105.489 154.781C132.374 154.781 159.26 154.781 186.145 154.781C213.03 154.781 239.916 154.781 266.801 154.781C281.91 154.781 297.02 154.781 312.128 154.781C313.416 154.781 313.417 152.781 312.128 152.781C285.242 152.781 258.358 152.781 231.473 152.781C204.588 152.781 177.702 152.781 150.817 152.781C135.708 152.781 120.598 152.781 105.489 152.781C104.202 152.781 104.2 154.781 105.489 154.781Z" fill="#17282F"/>
<path d="M105.489 171.369C132.374 171.369 159.26 171.369 186.145 171.369C213.03 171.369 239.916 171.369 266.801 171.369C281.91 171.369 297.02 171.369 312.128 171.369C313.416 171.369 313.417 169.369 312.128 169.369C285.242 169.369 258.358 169.369 231.473 169.369C204.588 169.369 177.702 169.369 150.817 169.369C135.708 169.369 120.598 169.369 105.489 169.369C104.202 169.369 104.2 171.369 105.489 171.369Z" fill="#17282F"/>
<path d="M105.489 187.961C132.374 187.961 159.26 187.961 186.145 187.961C213.03 187.961 239.916 187.961 266.801 187.961C281.91 187.961 297.02 187.961 312.128 187.961C313.416 187.961 313.417 185.961 312.128 185.961C285.242 185.961 258.358 185.961 231.473 185.961C204.588 185.961 177.702 185.961 150.817 185.961C135.708 185.961 120.598 185.961 105.489 185.961C104.202 185.961 104.2 187.961 105.489 187.961Z" fill="#17282F"/>
<path d="M105.489 204.551C132.374 204.551 159.26 204.551 186.145 204.551C213.03 204.551 239.916 204.551 266.801 204.551C281.91 204.551 297.02 204.551 312.128 204.551C313.416 204.551 313.417 202.551 312.128 202.551C285.242 202.551 258.358 202.551 231.473 202.551C204.588 202.551 177.702 202.551 150.817 202.551C135.708 202.551 120.598 202.551 105.489 202.551C104.202 202.551 104.2 204.551 105.489 204.551Z" fill="#17282F"/>
<path d="M105.489 221.139C132.374 221.139 159.26 221.139 186.145 221.139C213.03 221.139 239.916 221.139 266.801 221.139C281.91 221.139 297.02 221.139 312.128 221.139C313.416 221.139 313.417 219.139 312.128 219.139C285.242 219.139 258.358 219.139 231.473 219.139C204.588 219.139 177.702 219.139 150.817 219.139C135.708 219.139 120.598 219.139 105.489 219.139C104.202 219.139 104.2 221.139 105.489 221.139Z" fill="#17282F"/>
<path d="M126.827 294.914C122.072 294.914 117.318 294.914 112.564 294.914C111.892 294.914 111.219 294.914 110.547 294.914C110.714 295.081 110.88 295.247 111.047 295.414C111.047 290.659 111.047 285.906 111.047 281.151C111.047 280.479 111.047 279.807 111.047 279.134C110.88 279.301 110.714 279.467 110.547 279.634C115.301 279.634 120.055 279.634 124.809 279.634C125.482 279.634 126.154 279.634 126.827 279.634C126.66 279.467 126.493 279.301 126.327 279.134C126.327 283.889 126.327 288.643 126.327 293.397C126.327 294.069 126.327 294.742 126.327 295.414C126.327 296.058 127.327 296.058 127.327 295.414C127.327 290.659 127.327 285.906 127.327 281.151C127.327 280.479 127.327 279.807 127.327 279.134C127.327 278.865 127.097 278.634 126.827 278.634C122.072 278.634 117.318 278.634 112.564 278.634C111.892 278.634 111.219 278.634 110.547 278.634C110.277 278.634 110.047 278.863 110.047 279.134C110.047 283.889 110.047 288.643 110.047 293.397C110.047 294.069 110.047 294.742 110.047 295.414C110.047 295.685 110.276 295.914 110.547 295.914C115.301 295.914 120.055 295.914 124.809 295.914C125.482 295.914 126.154 295.914 126.827 295.914C127.47 295.914 127.471 294.914 126.827 294.914Z" fill="#406FBF"/>
<path d="M126.827 318.525C122.072 318.525 117.318 318.525 112.564 318.525C111.892 318.525 111.219 318.525 110.547 318.525C110.714 318.692 110.88 318.859 111.047 319.025C111.047 314.271 111.047 309.517 111.047 304.763C111.047 304.091 111.047 303.417 111.047 302.745C110.88 302.912 110.714 303.079 110.547 303.245C115.301 303.245 120.055 303.245 124.809 303.245C125.482 303.245 126.154 303.245 126.827 303.245C126.66 303.079 126.493 302.912 126.327 302.745C126.327 307.5 126.327 312.253 126.327 317.008C126.327 317.68 126.327 318.352 126.327 319.025C126.327 319.668 127.327 319.669 127.327 319.025C127.327 314.271 127.327 309.517 127.327 304.763C127.327 304.091 127.327 303.417 127.327 302.745C127.327 302.475 127.097 302.245 126.827 302.245C122.072 302.245 117.318 302.245 112.564 302.245C111.892 302.245 111.219 302.245 110.547 302.245C110.277 302.245 110.047 302.475 110.047 302.745C110.047 307.5 110.047 312.253 110.047 317.008C110.047 317.68 110.047 318.352 110.047 319.025C110.047 319.295 110.276 319.525 110.547 319.525C115.301 319.525 120.055 319.525 124.809 319.525C125.482 319.525 126.154 319.525 126.827 319.525C127.47 319.525 127.471 318.525 126.827 318.525Z" fill="#406FBF"/>
<path d="M126.827 342.029C122.072 342.029 117.318 342.029 112.564 342.029C111.892 342.029 111.219 342.029 110.547 342.029C110.714 342.196 110.88 342.363 111.047 342.529C111.047 337.775 111.047 333.021 111.047 328.267C111.047 327.595 111.047 326.923 111.047 326.249C110.88 326.416 110.714 326.583 110.547 326.749C115.301 326.749 120.055 326.749 124.809 326.749C125.482 326.749 126.154 326.749 126.827 326.749C126.66 326.583 126.493 326.416 126.327 326.249C126.327 331.004 126.327 335.759 126.327 340.512C126.327 341.185 126.327 341.857 126.327 342.529C126.327 343.173 127.327 343.173 127.327 342.529C127.327 337.775 127.327 333.021 127.327 328.267C127.327 327.595 127.327 326.923 127.327 326.249C127.327 325.98 127.097 325.749 126.827 325.749C122.072 325.749 117.318 325.749 112.564 325.749C111.892 325.749 111.219 325.749 110.547 325.749C110.277 325.749 110.047 325.979 110.047 326.249C110.047 331.004 110.047 335.759 110.047 340.512C110.047 341.185 110.047 341.857 110.047 342.529C110.047 342.8 110.276 343.029 110.547 343.029C115.301 343.029 120.055 343.029 124.809 343.029C125.482 343.029 126.154 343.029 126.827 343.029C127.47 343.029 127.471 342.029 126.827 342.029Z" fill="#406FBF"/>
<path d="M113.915 44.0801H113.156C109.748 44.0801 106.984 41.3174 106.984 37.9081V24.2787C106.984 20.8707 109.748 18.1081 113.156 18.1081H113.915C117.323 18.1081 120.087 20.8707 120.087 24.2787V37.9081C120.087 41.3174 117.323 44.0801 113.915 44.0801Z" fill="#406FBF"/>
<path d="M604.407 196.016H508.269C505.239 196.016 502.781 193.56 502.781 190.529V166.876C502.781 163.845 505.239 161.388 508.269 161.388H604.407C607.437 161.388 609.895 163.845 609.895 166.876V190.529C609.895 193.56 607.437 196.016 604.407 196.016Z" fill="#406FBF"/>
<path d="M604.407 196.016H508.269C505.239 196.016 502.781 193.56 502.781 190.529V166.876C502.781 163.845 505.239 161.388 508.269 161.388H604.407C607.437 161.388 609.895 163.845 609.895 166.876V190.529C609.895 193.56 607.437 196.016 604.407 196.016ZM590.573 168.708C585.033 168.708 580.543 173.198 580.543 178.738C580.543 184.278 585.033 188.769 590.573 188.769C596.113 188.769 600.605 184.278 600.605 178.738C600.605 173.198 596.113 168.708 590.573 168.708Z" fill="#CFE0F5"/>
<path d="M508.832 202.19H580.898C584.555 202.19 587.52 205.156 587.52 208.812V230.197C587.52 233.854 584.555 236.818 580.898 236.818H521.852C521.868 239.204 521.839 245.742 508.862 247.092C508.862 247.092 514.468 244.557 513.568 236.818H508.832C505.175 236.818 502.211 233.854 502.211 230.197V208.812C502.211 205.156 505.175 202.19 508.832 202.19Z" fill="#406FBF"/>
<path d="M508.862 247.092C508.862 247.092 513.667 244.92 513.666 238.457C513.666 237.938 513.635 237.393 513.568 236.818H508.832C505.175 236.818 502.211 233.854 502.211 230.197V208.812C502.211 205.156 505.175 202.19 508.832 202.19H580.898C584.555 202.19 587.52 205.156 587.52 208.812V230.197C587.52 233.854 584.555 236.818 580.898 236.818H521.852C521.852 236.893 521.852 236.972 521.852 237.054C521.854 239.608 521.434 245.785 508.862 247.092ZM570.734 209.325C565.194 209.325 560.703 213.816 560.703 219.356C560.703 224.896 565.194 229.386 570.734 229.386C576.274 229.386 580.764 224.896 580.764 219.356C580.764 213.816 576.274 209.325 570.734 209.325Z" fill="#CFE0F5"/>
<path d="M564.165 155.27H509.285C506.254 155.27 503.797 152.812 503.797 149.782V126.128C503.797 123.098 506.254 120.642 509.285 120.642H564.165C567.196 120.642 569.652 123.098 569.652 126.128V149.782C569.652 152.812 567.196 155.27 564.165 155.27Z" fill="#406FBF"/>
<path d="M564.165 155.27H509.285C506.254 155.27 503.797 152.812 503.797 149.782V126.128C503.797 123.098 506.254 120.642 509.285 120.642H564.165C567.196 120.642 569.652 123.098 569.652 126.128V149.782C569.652 152.812 567.196 155.27 564.165 155.27Z" fill="#CFE0F5"/>
<path d="M533.961 130.625V144.133H530.834V133.134H528.133V130.625H533.961Z" fill="#406FBF"/>
<path d="M546.526 139.887C546.526 142.281 544.768 144.363 540.91 144.363C539.039 144.363 537.07 143.843 535.758 142.917L536.992 140.523C538.016 141.297 539.423 141.739 540.834 141.739C542.396 141.739 543.362 141.085 543.362 139.985C543.362 138.922 542.666 138.227 540.215 138.227H536.76L537.456 130.625H545.696V133.134H540.062L539.848 135.699H540.948C544.943 135.699 546.526 137.494 546.526 139.887Z" fill="#406FBF"/>
<path d="M561.315 140.563C561.315 139.133 560.755 138.42 559.905 138.42C559.076 138.42 558.498 139.115 558.498 140.563C558.498 142.009 559.076 142.704 559.905 142.704C560.755 142.704 561.315 141.991 561.315 140.563ZM556.567 140.563C556.567 138.285 557.957 136.838 559.905 136.838C561.873 136.838 563.263 138.285 563.263 140.563C563.263 142.839 561.873 144.285 559.905 144.285C557.957 144.285 556.567 142.839 556.567 140.563ZM558.787 130.624H561.083L551.859 144.132H549.562L558.787 130.624ZM552.148 134.194C552.148 132.746 551.59 132.052 550.74 132.052C549.91 132.052 549.331 132.765 549.331 134.194C549.331 135.622 549.91 136.336 550.74 136.336C551.59 136.336 552.148 135.641 552.148 134.194ZM547.383 134.194C547.383 131.917 548.772 130.47 550.74 130.47C552.708 130.47 554.077 131.898 554.077 134.194C554.077 136.49 552.708 137.917 550.74 137.917C548.772 137.917 547.383 136.47 547.383 134.194Z" fill="#406FBF"/>
<path d="M523.259 139.693H515.531V136.84H523.259V139.693Z" fill="#406FBF"/>
<path d="M555.244 181.605H518.211V175.56H555.244V181.605Z" fill="#406FBF"/>
<path d="M600.61 178.739C600.61 184.279 596.118 188.77 590.578 188.77C585.038 188.77 580.547 184.279 580.547 178.739C580.547 173.199 585.038 168.708 590.578 168.708C596.118 168.708 600.61 173.199 600.61 178.739Z" fill="#406FBF"/>
<path d="M590.454 183.555L585.18 180.028L585.921 178.919L590.098 181.713L595.054 174.465L596.156 175.217L590.454 183.555Z" fill="#CFE0F5"/>
<path d="M542.788 222.223H509.852V216.176H542.788V222.223Z" fill="#406FBF"/>
<path d="M580.765 219.356C580.765 224.896 576.274 229.387 570.734 229.387C565.194 229.387 560.703 224.896 560.703 219.356C560.703 213.816 565.194 209.325 570.734 209.325C576.274 209.325 580.765 213.816 580.765 219.356Z" fill="#406FBF"/>
<path d="M570.609 224.174L565.336 220.646L566.077 219.538L570.255 222.332L575.211 215.083L576.312 215.836L570.609 224.174Z" fill="#CFE0F5"/>
<path d="M505.973 442.789H485.828C486.953 440.733 488.017 438.434 489.025 435.926C494.948 435.572 501.279 434.982 506.42 434.204L507.452 439.065C506.935 440.426 506.439 441.669 505.973 442.789Z" fill="#ACB5B6"/>
<path d="M411.241 442.791H516.438C519.747 442.791 522.429 445.472 522.429 448.78V459.047H405.25V448.78C405.25 445.472 407.933 442.791 411.241 442.791Z" fill="#406FBF"/>
<path d="M522.431 450.918H521.153L519.918 443.902C521.439 444.987 522.431 446.769 522.431 448.779V450.918ZM509.966 450.918H408.839C408.549 448.326 408.275 445.915 408.023 443.729C408.953 443.134 410.058 442.79 411.243 442.79H459.413C463.762 442.966 467.723 443.085 470.681 443.085C472.995 443.085 474.695 443.011 475.486 442.835C475.553 442.821 475.619 442.806 475.685 442.79H508.241L509.966 450.918Z" fill="#2D5BB2"/>
<path d="M518.002 553.582L472.831 549.644V478.539H456.95V549.628L411.617 553.582C407.622 553.975 404.578 557.334 404.578 561.346V567.363H463.338H466.281H525.041V561.346C525.041 557.334 521.997 553.975 518.002 553.582Z" fill="#17282F"/>
<path d="M525.041 567.363H404.578V565.873L411.417 564.991C411.417 564.991 411.059 559.366 410.743 553.718C411.029 553.656 411.319 553.611 411.617 553.582L456.95 549.628V503.068C457.699 503.524 458.578 503.787 459.519 503.787H470.966C471.626 503.787 472.255 503.658 472.831 503.423V508.985V509.318V532.523V532.856V549.644L518.002 553.582C521.997 553.975 525.041 557.334 525.041 561.346V567.363Z" fill="#849193"/>
<path d="M474.226 574.827C474.226 580.561 469.578 585.209 463.844 585.209C458.11 585.209 453.461 580.561 453.461 574.827C453.461 569.092 458.11 564.444 463.844 564.444C469.578 564.444 474.226 569.092 474.226 574.827Z" fill="#17282F"/>
<path d="M510.422 574.827C510.422 580.561 515.07 585.209 520.805 585.209C526.538 585.209 531.187 580.561 531.187 574.827C531.187 569.092 526.538 564.444 520.805 564.444C515.07 564.444 510.422 569.092 510.422 574.827Z" fill="#17282F"/>
<path d="M470.969 503.787H459.522C456.788 503.787 454.57 501.569 454.57 498.835V453.291H475.921V498.835C475.921 501.569 473.704 503.787 470.969 503.787Z" fill="#17282F"/>
<path d="M470.969 503.787H459.522C456.788 503.787 454.57 501.569 454.57 498.835V459.046H475.921V498.835C475.921 501.569 473.704 503.787 470.969 503.787Z" fill="#9BA6A6"/>
<path d="M403.208 450.919H524.484C525.814 450.919 526.893 451.998 526.893 453.328V456.638C526.893 457.968 525.814 459.047 524.484 459.047H403.208C401.876 459.047 400.797 457.968 400.797 456.638V453.328C400.797 451.998 401.876 450.919 403.208 450.919Z" fill="#17282F"/>
<path d="M524.477 459.047H522.58L521.149 450.919H524.477C525.808 450.919 526.887 451.998 526.887 453.328V456.638C526.887 457.968 525.808 459.047 524.477 459.047ZM511.689 459.047H475.917H454.567H409.744C409.427 456.191 409.124 453.47 408.836 450.919H509.963L511.689 459.047Z" fill="#9BA6A6"/>
<path d="M519.584 433.697H482.37C471.467 433.697 463.594 423.901 464.783 411.817L481.703 317.253C482.892 305.169 492.695 295.373 503.598 295.373H540.812C551.714 295.373 559.587 305.169 558.398 317.253L541.478 411.817C540.288 423.901 530.486 433.697 519.584 433.697Z" fill="#406FBF"/>
<path d="M519.589 433.697C530.49 433.697 540.293 423.901 541.482 411.817C540.433 422.48 532.677 431.361 523.377 433.303C522.138 433.561 520.872 433.697 519.589 433.697ZM517.976 432.864L508.961 381.643H531.71H539.772L534.373 411.817C533.389 421.82 526.502 430.255 517.976 432.864ZM545.142 351.629H516.614C519.522 336.476 519.605 311.541 516.914 299.289C516.729 298.443 516.524 297.631 516.304 296.856C522.688 296.856 529.072 296.856 535.457 296.856C535.83 296.856 535.986 296.52 535.928 296.237H537.334H539.13C547.092 298.88 552.274 307.289 551.293 317.253L545.142 351.629ZM558.402 317.253C559.402 307.096 553.998 298.556 545.776 296.091C553.34 298.357 558.518 305.765 558.521 314.844C558.522 315.636 558.482 316.44 558.402 317.253Z" fill="#2D5BB2"/>
<path d="M519.59 433.697H518.123L517.977 432.864C526.503 430.255 533.39 421.82 534.374 411.817L539.773 381.643H546.883L541.483 411.817C540.294 423.901 530.491 433.697 519.59 433.697ZM552.253 351.629H545.143L551.294 317.253C552.275 307.289 547.093 298.88 539.131 296.237H543.926C544.555 296.237 545.174 296.187 545.777 296.091C553.999 298.556 559.403 307.096 558.403 317.253L552.253 351.629Z" fill="#24437F"/>
<path d="M543.925 296.236H507.529C501.114 296.236 495.914 291.036 495.914 284.62V273.623C495.914 267.208 501.114 262.008 507.529 262.008H543.925C550.339 262.008 555.539 267.208 555.539 273.623V284.62C555.539 291.036 550.339 296.236 543.925 296.236Z" fill="#406FBF"/>
<path d="M543.927 296.236H537.337C543.751 296.236 548.953 291.036 548.953 284.62V273.623C548.953 267.208 543.751 262.008 537.337 262.008H507.531H543.927C550.342 262.008 555.542 267.208 555.542 273.623V284.62C555.542 291.036 550.342 296.236 543.927 296.236Z" fill="#254583"/>
<path d="M537.331 296.236H500.935C494.52 296.236 489.32 291.036 489.32 284.62V273.623C489.32 267.208 494.52 262.008 500.935 262.008H537.331C543.746 262.008 548.947 267.208 548.947 273.623V284.62C548.947 291.036 543.746 296.236 537.331 296.236Z" fill="#406FBF"/>
<path d="M537.331 296.236H535.924C535.88 296.031 535.724 295.855 535.454 295.855C528.968 295.855 522.484 295.855 516 295.855C511.215 280.678 499.999 279.734 499.999 279.734L489.32 278.207V273.623C489.32 267.208 494.52 262.008 500.935 262.008H537.331C543.746 262.008 548.947 267.208 548.947 273.623V284.62C548.947 291.036 543.746 296.236 537.331 296.236Z" fill="#2D5BB2"/>
<path d="M535.453 296.855C529.068 296.855 522.684 296.855 516.3 296.855C516.24 296.646 516.18 296.441 516.117 296.237H535.924C535.983 296.519 535.827 296.855 535.453 296.855Z" fill="#24437F"/>
<path d="M535.924 296.236H516.117C516.079 296.108 516.04 295.982 516 295.855C522.484 295.855 528.968 295.855 535.453 295.855C535.724 295.855 535.88 296.031 535.924 296.236Z" fill="#24437F"/>
<path d="M476.551 207.801C476.551 207.801 468.985 192.713 450.472 200.097C438.803 204.752 430.636 210.496 432.447 221.155C433.649 228.243 440.813 233.208 445.18 232.676C449.548 232.143 480.935 219.44 480.935 219.44C480.935 219.44 487.667 210.261 476.551 207.801Z" fill="#17282F"/>
<path d="M478.117 273.994C471.395 266.577 475.033 251.322 477.643 241.778L455.501 257.225C455.878 258.39 456.175 259.581 456.389 260.788C456.851 262.953 457.597 263.75 457.511 267.769C457.199 271.274 455.47 274.514 455.422 274.593C455.422 274.593 456.071 280.349 465.719 280.814C473.129 279.794 478.117 273.994 478.117 273.994Z" fill="#F89FAB"/>
<path d="M457.458 268.342C457.657 267.242 457.645 266.008 457.422 264.64C457.789 264.663 458.158 264.674 458.526 264.674C463.486 264.674 468.51 262.652 472.354 258.178C472.434 258.084 472.514 257.991 472.591 257.898C469.297 264.415 462.011 267.528 457.458 268.342Z" fill="#E18C91"/>
<path d="M478.138 229.044C478.433 242.815 478.885 250.573 472.35 258.177C462.522 269.616 445.005 265.024 440.475 251.617C436.399 239.551 436.602 219.059 449.959 212.497C463.118 206.035 477.842 215.273 478.138 229.044Z" fill="#F89FAB"/>
<path d="M458.198 235.119C458.317 236.52 457.647 237.717 456.703 237.793C455.759 237.868 454.898 236.793 454.779 235.392C454.661 233.992 455.33 232.793 456.273 232.719C457.217 232.643 458.078 233.717 458.198 235.119Z" fill="#17282F"/>
<path d="M445.917 236.023C446.035 237.424 445.366 238.621 444.423 238.697C443.479 238.773 442.618 237.699 442.498 236.297C442.379 234.896 443.049 233.699 443.993 233.623C444.937 233.548 445.798 234.621 445.917 236.023Z" fill="#17282F"/>
<path d="M450.364 233.109C450.364 233.109 446.393 240.481 445.172 243.448C447.327 245.029 450.712 243.906 450.712 243.906L450.364 233.109Z" fill="#F36178"/>
<path d="M461.264 229.091C461.06 229.208 460.799 229.219 460.579 229.096C457.963 227.643 455.716 228.717 455.694 228.729C455.359 228.893 454.951 228.767 454.783 228.444C454.615 228.121 454.751 227.727 455.084 227.561C455.202 227.503 458.016 226.153 461.262 227.959C461.587 228.139 461.696 228.54 461.507 228.853L461.264 229.091Z" fill="#17282F"/>
<path d="M440.241 229.892L439.961 229.623C439.78 229.302 439.894 228.9 440.22 228.727C443.474 226.983 446.224 228.426 446.356 228.475C446.685 228.65 446.812 229.051 446.64 229.372C446.468 229.692 446.064 229.811 445.736 229.64C445.624 229.576 443.49 228.491 440.878 229.891C440.673 230 440.434 229.994 440.241 229.892Z" fill="#17282F"/>
<path d="M469.339 211.086C469.339 211.086 457.375 223.432 444.78 218.024C432.185 212.616 458.651 199.136 469.339 211.086Z" fill="#17282F"/>
<path d="M486.257 214.075C481.994 208.185 476.245 210.108 476.245 210.108C475.738 211.243 475.386 212.363 475.144 213.465C472.157 211.579 469.254 210.192 467.585 210.571C463.105 211.585 466.054 214.78 466.054 214.78C466.054 214.78 469.608 217.393 469.737 220.796C469.834 223.341 469.393 225.968 469.165 227.131C468.244 231.571 466.765 236.811 468.24 238.353C470.669 240.893 472.514 238.087 477.808 234.919C478.533 234.485 479.34 234.131 480.476 234.036C479.442 238.82 478.412 242.795 477.561 245.66C477.306 246.519 477.028 247.303 476.712 248.029C480.668 242.744 485.202 236.469 486.588 233.664C486.869 233.097 487.086 232.551 487.248 232.02C489.372 227.859 490.521 219.964 486.257 214.075Z" fill="#17282F"/>
<path d="M484.665 239.961C483.839 243.587 481.363 246.506 478.684 248.105C474.655 250.513 472.711 246.185 472.743 241.835C472.773 237.921 473.537 233.085 478.104 232.441C482.603 231.805 485.609 235.814 484.665 239.961Z" fill="#F89FAB"/>
<path d="M475.047 241.643C475.042 241.643 475.036 241.643 475.031 241.643C474.755 241.633 474.539 241.403 474.547 241.127C474.588 239.847 474.976 238.583 475.663 237.488C476.239 236.576 477.07 235.728 478.186 235.351C478.535 235.233 478.903 235.175 479.271 235.175C480.099 235.176 480.948 235.471 481.512 236.144C481.688 236.357 481.659 236.672 481.447 236.848C481.354 236.927 481.24 236.964 481.128 236.964C480.984 236.964 480.842 236.903 480.743 236.783C480.424 236.395 479.868 236.175 479.274 236.175C479.272 236.175 479.272 236.175 479.271 236.175C479.01 236.175 478.746 236.217 478.503 236.299C477.691 236.568 477.002 237.236 476.51 238.021V238.02C475.918 238.964 475.58 240.06 475.547 241.159C475.538 241.428 475.316 241.643 475.047 241.643Z" fill="#D78186"/>
<path d="M470.953 222.055C470.37 222.055 470.394 221.113 471.01 221.052C476.453 220.519 481.699 218.704 486.326 215.793C486.414 215.737 486.501 215.713 486.582 215.713C487.007 215.713 487.286 216.369 486.831 216.656C482.049 219.665 476.631 221.501 471.01 222.052C470.99 222.055 470.971 222.055 470.953 222.055Z" fill="#0F191D"/>
<path d="M476.189 225.324C474.497 225.324 472.8 225.207 471.112 224.971C470.504 224.887 470.727 224.002 471.299 224.002C471.324 224.002 471.351 224.003 471.379 224.007C472.966 224.228 474.561 224.338 476.155 224.338C480.183 224.338 484.196 223.638 488.01 222.278C488.07 222.255 488.127 222.246 488.18 222.246C488.66 222.246 488.816 223.048 488.275 223.242C484.379 224.631 480.295 225.324 476.189 225.324Z" fill="#0F191D"/>
<path d="M446.177 209.051C446.109 206.789 446.729 204.509 447.949 202.589C448.054 202.425 448.208 202.357 448.36 202.357C448.708 202.357 449.054 202.716 448.813 203.095C447.772 204.733 447.205 206.635 447.174 208.549C446.83 208.711 446.497 208.879 446.177 209.051Z" fill="#0F191D"/>
<path d="M453.743 219.145C453.688 219.145 453.631 219.134 453.568 219.111C450.529 217.991 448.06 215.63 446.883 212.601C446.44 211.461 446.208 210.258 446.172 209.05C446.492 208.878 446.825 208.71 447.169 208.549C447.151 209.753 447.344 210.963 447.764 212.117C448.779 214.893 451.071 217.129 453.835 218.147C454.372 218.345 454.217 219.145 453.743 219.145Z" fill="#0F191D"/>
<path d="M439.594 205.684C439.651 205.509 439.714 205.333 439.78 205.16C439.871 204.924 440.076 204.822 440.278 204.822C440.42 204.822 440.56 204.873 440.656 204.962C440.292 205.2 439.938 205.44 439.594 205.684Z" fill="#A7A9A8"/>
<path d="M441.863 215.83C439.403 213.174 438.409 209.317 439.589 205.683C439.933 205.439 440.288 205.199 440.652 204.962C440.764 205.069 440.816 205.229 440.74 205.425C439.644 208.267 440.02 211.354 441.521 213.775C441.367 214.479 441.465 215.174 441.863 215.83Z" fill="#0F191D"/>
<path d="M445.888 218.479C445.832 218.479 445.772 218.468 445.708 218.443C445.364 218.309 445.032 218.159 444.711 217.992C444.735 218.003 444.759 218.013 444.784 218.024C445.172 218.191 445.56 218.341 445.947 218.475C445.928 218.477 445.908 218.479 445.888 218.479Z" fill="#B87074"/>
<path d="M445.943 218.475C445.556 218.341 445.168 218.191 444.78 218.024C444.755 218.013 444.731 218.003 444.707 217.992C443.62 217.431 442.664 216.693 441.864 215.829C441.467 215.173 441.368 214.479 441.523 213.775C442.531 215.403 444.049 216.729 445.971 217.479C446.477 217.676 446.361 218.411 445.943 218.475Z" fill="#0F191D"/>
<path d="M454.287 249.932C456.435 249.562 458.249 248.032 459.075 246.033C459.177 245.784 458.963 245.484 458.725 245.418C458.437 245.34 458.213 245.517 458.111 245.768C457.415 247.452 455.799 248.662 454.021 248.966C453.755 249.013 453.605 249.34 453.672 249.582C453.749 249.864 454.02 249.977 454.287 249.932Z" fill="#17282F"/>
<path d="M490.67 279.655L478.087 272.205L465.834 277.243L454.824 273.623L449.218 277.243L443.879 291.641C443.879 291.641 433.96 401.105 434.926 401.975C435.892 402.847 480.348 420.502 480.348 420.502L497.722 295.327L490.67 279.655Z" fill="#406FBF"/>
<path d="M458.466 393.705C457.601 393.705 456.744 393.678 455.897 393.624L463.148 382.544C463.397 385.57 463.772 389.3 464.224 393.366C462.273 393.581 460.35 393.705 458.466 393.705ZM455.861 393.621C451.64 393.341 447.644 392.333 444.008 390.204C444.962 387.126 445.809 384.201 446.464 381.641H450.8L455.861 393.621ZM450.948 361.706H449.313C449.362 360.913 449.405 360.128 449.444 359.353C449.496 359.308 449.54 359.25 449.572 359.18C449.901 359.629 450.436 360.288 451.082 360.829C451.037 361.125 450.992 361.417 450.948 361.706ZM453.134 347.458C452.641 347.453 452.154 347.45 451.681 347.449C451.561 347.329 451.441 347.209 451.322 347.089C451.218 346.985 451.102 346.941 450.989 346.941C450.722 346.941 450.477 347.182 450.468 347.449C450.464 347.449 450.46 347.449 450.456 347.449C450.21 347.296 449.973 347.154 449.746 347.029C449.756 345.684 449.761 344.492 449.773 343.489C449.773 343.48 449.773 343.469 449.774 343.46C449.864 336.926 454.717 279.246 455.181 273.741L455.22 273.753L455.418 283.122L461.932 285.468L462.52 285.233C462.562 285.817 457.201 320.942 453.134 347.458ZM466.23 346.258L466.934 284.818L462.52 285.233L477.702 279.166C476.584 289.194 474.581 307.101 472.905 321.834C471.588 333.406 470.472 343.021 470.142 345.326C470.122 345.469 470.098 345.616 470.073 345.765C468.909 345.914 467.745 346.064 466.582 346.213C466.465 346.228 466.348 346.242 466.23 346.258ZM477.826 278.056L478.4 272.9L477.99 272.244L478.086 272.204L478.453 272.421C478.33 273.528 478.113 275.48 477.826 278.056ZM487.874 278L487.844 277.996L487.729 277.913L487.874 278Z" fill="#CFE0F5"/>
<path d="M462.524 285.234C462.592 286.175 448.664 376.576 448.664 376.576L455.88 393.656L466.157 377.954L466.08 359.794L466.939 284.819L462.524 285.234Z" fill="#17282F"/>
<path d="M455.219 273.599L457.205 269.69L465.627 276.021L474.839 267.177L478.401 272.901L477.704 279.167L461.933 285.469L455.42 283.123L455.219 273.599Z" fill="#406FBF"/>
<path d="M461.933 285.469L455.42 283.123L455.219 273.599L457.205 269.69L465.627 276.021L474.839 267.177L478.401 272.901L477.828 278.057C477.788 278.415 477.747 278.786 477.704 279.167L462.521 285.234L461.933 285.469Z" fill="#CFE0F5"/>
<path d="M460.406 281.835L463.405 277.244H465.641L468.924 281.835L466.676 285.832H462.889L460.406 281.835Z" fill="#17282F"/>
<path d="M419.609 284.597C415.609 290.008 407.734 340.068 407.734 340.068L389.174 323.594C389.174 323.594 374.737 334.276 374.964 335.042C375.192 335.809 398.437 363.169 407.61 369.286C416.785 375.402 424.548 366.228 424.548 366.228L428.866 281.018V278.597C428.866 278.597 423.608 279.186 419.609 284.597Z" fill="#406FBF"/>
<path d="M407.835 339.465C407.622 339.234 407.727 338.94 407.943 338.784C407.901 339.05 407.865 339.278 407.835 339.465Z" fill="#A7A9A8"/>
<path d="M415.331 350.424C415.131 350.424 414.933 350.318 414.859 350.074C413.588 345.965 411.156 342.3 407.885 339.51C407.867 339.496 407.851 339.48 407.836 339.464C407.865 339.277 407.901 339.049 407.944 338.783C408.036 338.717 408.147 338.677 408.261 338.677C408.373 338.677 408.488 338.715 408.592 338.804C411.991 341.701 414.504 345.544 415.823 349.809C415.937 350.181 415.632 350.424 415.331 350.424Z" fill="#2D5BB2"/>
<path d="M387.968 329.599C386.757 327.619 375.75 322.115 375.75 322.115L369.68 325.341C369.68 325.341 369.85 325.518 370.145 325.817C371.817 327.518 377.489 333.182 378.613 332.902C379.933 332.571 389.178 331.581 387.968 329.599Z" fill="#F89FAB"/>
<path d="M333.365 286.557C344.597 289.651 380.326 285.669 380.326 285.669L428.622 328.692L380.557 330C380.557 330 331.349 286.001 333.365 286.557Z" fill="#406FBF"/>
<path d="M380.551 330C380.551 330 380.458 329.916 380.278 329.756L379.813 323.988C380.443 323.475 380.958 322.912 381.297 322.325C381.922 321.245 381.901 320.737 381.679 320.507C381.99 320.224 381.739 319.699 381.353 319.659C382.378 318.293 384.265 315.317 382.597 313.748C382.175 313.352 381.414 313.191 380.457 313.191C379.994 313.191 379.487 313.228 378.95 313.295L376.75 286.036C378.986 285.819 380.321 285.669 380.321 285.669L422.761 323.475C422.691 325.269 422.625 327.063 422.561 328.856L409.526 329.212L380.551 330ZM423.561 328.829C423.615 327.332 423.67 325.833 423.727 324.336L425.479 325.897L425.194 328.785L423.561 328.829Z" fill="#CFE0F5"/>
<path d="M360.897 314.918C361.209 314.502 360.637 310.759 363.887 309.979C367.136 309.199 377.533 307.119 376.624 309.979C375.715 312.838 368.787 314.398 368.787 314.398V316.087C368.787 316.087 380.393 311.669 382.603 313.749C384.812 315.827 380.783 320.377 380.783 320.377C380.783 320.377 382.732 319.857 381.303 322.326C379.873 324.795 375.332 326.875 372.079 326.355C368.825 325.835 369.085 325.186 367.005 322.586C364.927 319.987 360.117 315.958 360.897 314.918Z" fill="#F89FAB"/>
<path d="M379.232 316.785L379.148 315.749C379.84 315.482 380.536 315.226 381.236 314.984C381.296 314.962 381.354 314.953 381.406 314.953C381.89 314.953 382.047 315.758 381.503 315.948C380.74 316.213 379.983 316.492 379.232 316.785Z" fill="#B87074"/>
<path d="M381.684 320.508C381.549 320.369 381.34 320.332 381.156 320.332C380.953 320.332 380.781 320.377 380.781 320.377C380.781 320.377 381.024 320.104 381.357 319.66C381.744 319.7 381.995 320.225 381.684 320.508Z" fill="#8898AD"/>
<path d="M379.618 321.572L379.531 320.504C380.047 320.252 380.558 319.991 381.065 319.72C381.147 319.676 381.229 319.656 381.306 319.656C381.322 319.656 381.338 319.658 381.353 319.659C381.019 320.103 380.777 320.376 380.777 320.376C380.777 320.376 380.949 320.331 381.151 320.331C381.335 320.331 381.545 320.368 381.679 320.507C381.649 320.536 381.613 320.562 381.57 320.584C380.926 320.927 380.275 321.256 379.618 321.572Z" fill="#B87074"/>
<path d="M441.211 395.72L443.47 389.877C454.724 396.89 469.558 392.736 483.944 389.486C483.944 389.486 483.187 426.413 483.187 425.893C483.187 425.374 441.211 395.72 441.211 395.72Z" fill="#17282F"/>
<path d="M421.899 361.707H421.039C421.806 350.77 422.168 339.812 422.566 328.856L423.566 328.83C423.206 338.778 422.874 348.724 422.243 358.659L421.986 361.254C421.986 361.254 421.955 361.41 421.899 361.707ZM423.732 324.336L422.766 323.475C423.128 314.02 423.571 304.57 424.376 295.138C424.403 294.819 424.667 294.659 424.918 294.659C425.167 294.659 425.403 294.818 425.376 295.138C424.547 304.856 424.102 314.594 423.732 324.336Z" fill="#2D5BB2"/>
<path d="M422.562 328.857C422.626 327.064 422.693 325.271 422.762 323.476L423.729 324.337C423.672 325.835 423.617 327.333 423.562 328.831L422.562 328.857Z" fill="#8898AD"/>
<path d="M455.217 273.32L444.253 277.243L428.672 278.498L426.294 317.67L421.981 361.254C421.981 361.254 412.786 408.771 414.968 413.268C417.15 417.764 431.541 421.915 432.624 421.123C433.706 420.331 444.685 390.792 447.294 378.082C449.904 365.371 449.694 350.195 449.773 343.49C449.853 336.786 455.217 273.32 455.217 273.32Z" fill="#406FBF"/>
<path d="M442.805 277.361C442.823 277.323 442.842 277.283 442.861 277.244H444.255L442.805 277.361Z" fill="#B2BABA"/>
<path d="M449.552 346.924C449.208 346.74 448.895 346.593 448.623 346.492C448.078 346.292 447.614 346.21 447.22 346.21C446.82 346.21 446.492 346.295 446.226 346.42C442.491 339.836 439.292 332.847 436.324 325.957C434.323 321.313 432.736 315.844 435.056 311.352C436.596 308.368 439.791 305.926 439.6 302.573C439.414 299.29 436.002 297.067 435.179 293.883C434.391 290.828 436.163 287.712 438.194 285.297C439.439 283.816 441.318 280.443 442.8 277.36L444.251 277.242L455.215 273.32C455.215 273.32 455.211 273.372 455.202 273.474C454.911 276.924 449.864 336.797 449.772 343.46C449.771 343.469 449.771 343.48 449.771 343.489C449.76 344.384 449.639 345.586 449.552 346.924Z" fill="#3665B9"/>
<path d="M503.132 258.867C510.664 258.867 518.196 258.867 525.728 258.867C526.371 258.867 526.372 257.867 525.728 257.867C518.196 257.867 510.664 257.867 503.132 257.867C502.488 257.867 502.487 258.867 503.132 258.867Z" fill="#406FBF"/>
<path d="M528.693 258.768C530.131 258.768 531.567 258.768 533.004 258.768C533.648 258.768 533.648 257.768 533.004 257.768C531.567 257.768 530.131 257.768 528.693 257.768C528.051 257.768 528.049 258.768 528.693 258.768Z" fill="#406FBF"/>
<path d="M397.266 566.816L393.859 545.176C393.859 545.176 410.643 542.08 410.317 542.299C409.99 542.516 411.418 564.991 411.418 564.991L397.266 566.816Z" fill="#406FBF"/>
<path d="M412.049 561.954C412.181 560.04 409.34 561.119 407.232 562.173C405.696 562.94 403.943 563.141 402.271 562.755L401.631 562.607L401.127 559.565C400.689 556.946 399.239 555.317 396.717 555.761C395.481 555.977 392.932 558.282 392.889 560.119C392.777 565.018 388.395 566.738 388.395 566.738C388.395 566.738 374.173 573.665 370.156 575.19C367.771 576.095 364.349 577.583 362.711 580.534C362.243 581.378 361.891 584.186 361.891 586.086L391.783 585.686C391.783 585.686 396.052 584.726 397.281 584.536C398.516 584.352 400.653 585.461 400.653 585.461L413.609 584.809C413.699 583.628 414.057 578.194 414.168 576.77C414.635 570.664 411.928 563.682 412.049 561.954Z" fill="#17282F"/>
<path d="M380.494 569.795C380.656 569.621 380.914 569.595 381.111 569.724C382.019 570.318 382.79 571.167 383.328 572.243C383.611 572.81 382.819 573.385 382.532 572.811C382.055 571.855 381.38 571.105 380.587 570.586C380.322 570.411 380.27 570.035 380.487 569.802L380.494 569.795Z" fill="white"/>
<path d="M383.846 568.092C384.007 567.918 384.264 567.893 384.463 568.021C385.37 568.614 386.142 569.464 386.679 570.54C386.963 571.107 386.171 571.681 385.884 571.109C385.407 570.152 384.731 569.401 383.939 568.883C383.674 568.708 383.62 568.332 383.839 568.099L383.846 568.092Z" fill="white"/>
<path d="M387.338 566.619C387.5 566.445 387.757 566.421 387.954 566.55C388.862 567.142 389.634 567.991 390.172 569.067C390.456 569.634 389.662 570.209 389.377 569.636C388.9 568.679 388.224 567.928 387.43 567.41C387.166 567.236 387.113 566.859 387.33 566.628L387.338 566.619Z" fill="white"/>
<path d="M316.484 519.145L324.647 497.448C324.647 497.448 341.712 503.361 341.298 503.39C340.882 503.421 330.464 524.854 330.464 524.854L316.484 519.145Z" fill="#406FBF"/>
<path d="M332.634 522.388C333.755 520.697 330.577 520.207 328.086 520.075C326.273 519.98 324.554 519.249 323.215 518.021L322.703 517.551L323.829 514.487C324.794 511.848 324.309 509.591 321.755 508.685C320.506 508.236 316.955 509.028 315.957 510.696C313.295 515.148 308.363 514.443 308.363 514.443C308.363 514.443 291.658 513.394 287.163 512.7C284.495 512.288 280.57 511.871 277.521 513.733C276.65 514.264 274.859 516.666 273.867 518.415L301.59 533.651C301.59 533.651 306.022 534.998 307.251 535.466C308.485 535.939 309.873 538.076 309.873 538.076L322.138 544.24C322.838 543.199 326.005 538.386 326.85 537.132C330.469 531.756 331.622 523.916 332.634 522.388Z" fill="#17282F"/>
<path d="M299.498 513.13C299.738 513.055 299.988 513.166 300.102 513.389C300.629 514.407 300.894 515.591 300.828 516.863C300.793 517.533 299.764 517.648 299.798 516.971C299.858 515.842 299.629 514.798 299.17 513.906C299.017 513.609 299.165 513.234 299.486 513.134L299.498 513.13Z" fill="white"/>
<path d="M303.467 513.314C303.707 513.238 303.956 513.349 304.071 513.572C304.598 514.591 304.864 515.776 304.798 517.046C304.762 517.717 303.732 517.832 303.768 517.156C303.827 516.026 303.599 514.982 303.139 514.09C302.986 513.791 303.134 513.418 303.456 513.317L303.467 513.314Z" fill="white"/>
<path d="M307.45 513.78C307.69 513.705 307.939 513.816 308.054 514.038C308.581 515.057 308.847 516.243 308.781 517.513C308.745 518.184 307.717 518.298 307.751 517.622C307.811 516.492 307.582 515.449 307.123 514.557C306.97 514.258 307.118 513.884 307.439 513.784L307.45 513.78Z" fill="white"/>
<path d="M313.041 504.219C312.653 502.665 359.008 382.806 367.792 374.925C379.604 364.329 401.427 373.713 413.675 379.153C425.921 384.594 483.495 411.497 483.495 411.497C483.495 411.497 489.473 439.728 475.483 442.836C470.829 443.87 434.625 441.342 427.064 441.342C421.792 441.342 386.437 417.333 386.437 417.333C386.437 417.333 347.771 512.503 343.496 517.943L313.041 504.219Z" fill="#17282F"/>
<path d="M367.794 433.65C367.794 436.37 382.53 549.658 382.53 549.658L419.03 545.288C419.03 545.288 408.101 441.812 406.546 431.706C404.992 421.602 401.09 412.072 397.995 406.834C389.862 393.062 363.642 400.83 367.794 433.65Z" fill="#17282F"/>
<path d="M370.223 457.902C370.082 457.902 369.938 457.876 369.805 457.824C370.038 457.26 370.269 456.704 370.502 456.142C370.57 456.688 370.639 457.232 370.709 457.79C370.562 457.865 370.394 457.902 370.223 457.902Z" fill="#A7A9A8"/>
<path d="M369.808 457.824C369.47 457.694 369.198 457.399 369.174 456.939C368.77 449.151 368.309 441.366 367.789 433.584C367.792 433.606 367.794 433.628 367.797 433.651C367.797 434.395 368.901 443.424 370.505 456.143C370.272 456.704 370.041 457.26 369.808 457.824Z" fill="#0F191D"/>
<path d="M406.592 432.033C406.575 431.915 406.559 431.807 406.543 431.707C406.471 431.239 406.394 430.772 406.312 430.307C406.502 430.425 406.691 430.544 406.882 430.663C406.903 430.849 406.924 431.036 406.946 431.223C406.99 431.612 406.834 431.883 406.592 432.033Z" fill="#A7A9A8"/>
<path d="M406.888 430.662C406.697 430.543 406.508 430.425 406.318 430.306C404.634 420.727 400.949 411.829 397.998 406.834C396.6 404.463 394.662 402.731 392.438 401.655C392.948 401.867 393.441 402.11 393.914 402.386C396.15 403.689 397.886 405.793 399.317 407.906C403.821 414.566 405.949 422.758 406.888 430.662ZM367.356 427.329C367.073 423.555 366.432 419.597 367.121 415.846C368.59 407.857 375.133 401.639 383.182 400.605C383.67 400.542 384.168 400.495 384.672 400.467C376.085 401.598 367.205 410.326 367.356 427.329Z" fill="#0F191D"/>
<path d="M370.709 457.789C370.64 457.23 370.571 456.686 370.503 456.141C368.899 443.422 367.795 434.393 367.795 433.649C367.792 433.626 367.789 433.604 367.787 433.582C367.652 431.578 367.513 429.576 367.372 427.573C367.365 427.492 367.36 427.41 367.353 427.328C367.203 410.325 376.083 401.597 384.669 400.466C385.056 400.444 385.447 400.433 385.84 400.433C388.084 400.433 390.391 400.8 392.436 401.654C394.66 402.73 396.597 404.462 397.996 406.833C400.947 411.828 404.632 420.726 406.316 430.305C406.397 430.77 406.475 431.237 406.547 431.705C406.563 431.805 406.579 431.913 406.596 432.032C406.441 432.128 406.253 432.174 406.06 432.174C405.559 432.174 405.02 431.854 404.949 431.221C404.033 423.025 401.76 414.009 396.507 407.436C394.939 405.474 393.161 403.968 390.741 403.206C389.095 402.689 387.368 402.433 385.64 402.433C385.191 402.433 384.741 402.45 384.293 402.485C384.291 402.453 384.287 402.421 384.283 402.388C384.212 401.754 383.673 401.434 383.172 401.434C382.673 401.434 382.212 401.75 382.283 402.388C382.296 402.509 382.309 402.63 382.324 402.75C381.052 402.997 379.809 403.385 378.628 403.913C372.377 406.712 368.405 413.461 368.831 420.273C369.595 432.497 370.537 444.704 371.172 456.937C371.195 457.361 370.992 457.645 370.709 457.789Z" fill="#0F191D"/>
<path d="M399.492 548.037C399.204 548.037 398.905 547.932 398.688 547.722L400.334 547.525C400.204 547.866 399.857 548.037 399.492 548.037Z" fill="#2D5BB2"/>
<path d="M398.686 547.723C398.524 547.566 398.41 547.353 398.379 547.083C397.283 537.252 396.188 527.42 395.094 517.588C392.871 497.611 390.652 477.633 388.431 457.657C386.396 439.355 384.362 421.053 382.32 402.751C382.971 402.625 383.628 402.536 384.29 402.485C385.383 412.284 386.474 422.084 387.564 431.883C389.787 451.86 392.007 471.837 394.228 491.814C396.276 510.237 398.324 528.66 400.379 547.083C400.399 547.253 400.379 547.401 400.332 547.525L398.686 547.723Z" fill="#0F191D"/>
<path d="M382.322 402.752C382.307 402.632 382.294 402.511 382.281 402.389C382.21 401.752 382.671 401.436 383.17 401.436C383.671 401.436 384.21 401.756 384.281 402.389C384.285 402.423 384.289 402.455 384.291 402.487C383.63 402.537 382.973 402.627 382.322 402.752Z" fill="#0A0F12"/>
<path d="M459.418 401.449C459.346 401.449 459.27 401.433 459.192 401.397C451.642 397.888 444.091 394.379 436.539 390.869C436.034 390.635 436.348 389.955 436.82 389.955C436.892 389.955 436.967 389.971 437.044 390.005C444.595 393.516 452.147 397.024 459.698 400.533C460.204 400.769 459.888 401.449 459.418 401.449Z" fill="#0F191D"/>
<path d="M487.848 277.996L478.572 271.396C478.572 271.396 471.095 338.688 470.147 345.327C469.199 351.966 462.244 365.558 462.876 378.518C463.508 391.479 469.312 434.824 470.356 435.667C472.626 437.5 514.006 435.24 516.851 431.131C519.696 427.022 498.599 359.918 498.599 359.918L501.626 321.348L500.004 279.734L487.848 277.996Z" fill="#406FBF"/>
<path d="M478.453 272.422C478.528 271.755 478.568 271.397 478.568 271.397C478.566 271.403 478.528 271.761 478.453 272.422Z" fill="#B2BABA"/>
<path d="M472.906 321.836C474.582 307.103 476.585 289.196 477.704 279.168L477.828 278.057C478.114 275.481 478.332 273.529 478.454 272.423C477.865 277.724 475.105 302.509 472.906 321.836Z" fill="#94A9BF"/>
<path d="M477.703 279.168C477.746 278.787 477.787 278.416 477.827 278.057L477.703 279.168Z" fill="#94A9BF"/>
<path d="M470.078 345.766C470.103 345.616 470.127 345.47 470.147 345.327C470.477 343.022 471.593 333.407 472.91 321.835C475.109 302.508 477.869 277.723 478.458 272.422C478.533 271.76 478.571 271.403 478.573 271.396L487.849 277.996L488.714 278.16C489.986 281.312 491.191 284.492 492.306 287.703C493.298 290.558 494.207 293.798 492.855 296.5C491.467 299.272 487.866 301.12 488.067 304.215C488.155 305.587 489.026 306.77 489.451 308.076C490.509 311.319 488.751 314.74 487.053 317.696C481.698 327.014 476.343 336.331 470.989 345.648C470.685 345.687 470.382 345.726 470.078 345.766Z" fill="#3665B9"/>
<path d="M477.43 386.449C476.854 386.449 476.882 385.512 477.493 385.445C482.458 384.897 487.339 383.767 492.047 382.101C492.109 382.08 492.165 382.069 492.218 382.069C492.699 382.069 492.857 382.873 492.314 383.065C487.518 384.763 482.55 385.887 477.493 386.445C477.471 386.448 477.45 386.449 477.43 386.449Z" fill="#2D5BB2"/>
<path d="M500.004 279.733C500.004 279.733 512.86 280.813 516.916 299.288C520.556 315.862 519.12 355.652 512.481 363.028C505.842 370.404 455.344 364.534 455.344 364.534L455.729 347.75L494.873 344.325L496.304 308.065L500.004 279.733Z" fill="#406FBF"/>
<path d="M497.238 299.219C496.988 299.219 496.742 299.059 496.75 298.736C496.829 295.693 497.013 292.609 497.764 289.648C498.122 288.233 498.632 286.876 499.242 285.561L498.609 290.404C498.168 292.315 497.958 294.271 497.849 296.229L497.464 299.173C497.393 299.204 497.316 299.219 497.238 299.219Z" fill="#2D5BB2"/>
<path d="M497.461 299.172L497.846 296.228C497.798 297.064 497.769 297.9 497.748 298.735C497.742 298.957 497.62 299.103 497.461 299.172ZM498.606 290.403L499.24 285.56C499.65 284.673 500.108 283.807 500.597 282.956C500.696 282.784 500.845 282.712 500.996 282.712C501.337 282.712 501.682 283.073 501.46 283.46C500.288 285.503 499.306 287.623 498.725 289.912C498.684 290.076 498.645 290.239 498.606 290.403Z" fill="#2D5BB2"/>
<path d="M461.677 348.092C460.456 347.528 454.549 347.44 450.457 347.451C449.754 347.014 449.121 346.676 448.626 346.494C445.825 345.462 445.161 347.6 445.161 347.6C445.161 347.6 444.57 345.756 442.138 345.094C439.705 344.43 438.304 347.674 438.304 347.674C438.304 347.674 438.525 346.568 434.986 346.347C431.446 346.126 429.308 356.448 429.308 356.448C429.308 356.448 425.253 357.186 424.294 358.955C423.336 360.724 426.58 361.167 426.58 361.167C429.234 361.756 429.75 360.946 429.75 360.946C429.75 360.946 430.266 362.126 432.626 362.246C434.86 362.359 435.173 360.259 435.201 360.031C435.162 360.335 435.046 362.271 438.377 362.246C441.99 362.218 442.064 360.503 442.064 360.503C442.433 362.274 444.792 362.42 446.636 362.126C448.478 361.831 449.216 358.66 449.216 358.66C449.216 358.66 450.986 361.536 452.964 361.756C454.63 361.943 457.638 359.771 458.472 357.583C460.98 354.138 462.974 348.694 461.677 348.092Z" fill="#F89FAB"/>
<path d="M466.227 346.832L466.233 346.259C466.351 346.243 466.468 346.228 466.585 346.213C467.748 346.064 468.912 345.915 470.076 345.765C470.075 345.772 470.073 345.78 470.072 345.788C470.031 346.02 469.984 346.261 469.931 346.508L466.227 346.832Z" fill="#8898AD"/>
<path d="M462.141 347.189C462.175 346.969 462.333 346.759 462.607 346.723C463.817 346.568 465.026 346.413 466.235 346.259L466.229 346.832L462.141 347.189Z" fill="#0F191D"/>
<path d="M470.521 346.457C470.676 346.188 470.83 345.918 470.985 345.649C475.245 345.101 479.502 344.55 483.761 343.994C487.212 343.544 490.832 343.334 494.265 342.648C494.112 342.865 494.109 343.189 494.408 343.356C494.525 343.421 494.641 343.488 494.757 343.554C493.529 343.776 492.256 343.872 491.029 344.036C486.257 344.676 481.484 345.3 476.708 345.916L470.521 346.457Z" fill="#2D5BB2"/>
<path d="M469.93 346.508C469.983 346.261 470.03 346.02 470.071 345.788C470.03 346.021 469.983 346.261 469.93 346.508Z" fill="#637183"/>
<path d="M469.93 346.508C469.983 346.261 470.03 346.021 470.071 345.788C470.072 345.78 470.074 345.772 470.075 345.765C470.379 345.725 470.682 345.686 470.986 345.648C470.831 345.917 470.676 346.186 470.522 346.456L469.93 346.508Z" fill="#234D95"/>
<path d="M462.535 347.729C462.229 347.729 462.098 347.454 462.141 347.19L466.229 346.833L469.933 346.509L470.525 346.457L476.711 345.915C472.011 346.522 467.31 347.122 462.607 347.723C462.583 347.726 462.559 347.729 462.535 347.729Z" fill="#2D5BB2"/>
<path d="M494.941 342.508C494.932 342.502 494.923 342.497 494.913 342.492C494.905 342.488 494.897 342.482 494.891 342.48C494.923 342.097 494.956 341.713 494.988 341.33L494.941 342.508Z" fill="#2D5BB2"/>
<path d="M495.831 343.029C495.536 342.851 495.239 342.676 494.938 342.508L494.984 341.331C495.059 340.46 495.134 339.588 495.208 338.716C496.04 328.975 496.874 319.232 497.706 309.491C497.734 309.172 497.997 309.011 498.248 309.011C498.497 309.011 498.734 309.171 498.706 309.491C498.586 310.893 498.467 312.296 498.347 313.697C497.513 323.44 496.681 333.181 495.848 342.924C495.845 342.959 495.839 342.995 495.831 343.029Z" fill="#2D5BB2"/>
<path d="M494.898 343.635C494.851 343.608 494.804 343.581 494.758 343.553C494.806 343.545 494.854 343.536 494.902 343.527L494.898 343.635Z" fill="#2D5BB2"/>
<path d="M503.876 351.467C503.722 351.467 503.568 351.405 503.454 351.255C501.145 348.169 498.22 345.58 494.898 343.635L494.902 343.527C495.098 343.491 495.293 343.451 495.486 343.405C495.676 343.361 495.792 343.205 495.836 343.029C499.13 345.032 502.005 347.659 504.318 350.749C504.59 351.113 504.24 351.467 503.876 351.467Z" fill="#2D5BB2"/>
<path d="M494.266 342.646C494.358 342.516 494.502 342.424 494.668 342.424C494.739 342.424 494.814 342.441 494.891 342.48C494.89 342.492 494.888 342.504 494.887 342.516C494.68 342.561 494.474 342.604 494.266 342.646Z" fill="#2D5BB2"/>
<path d="M494.758 343.555C494.642 343.488 494.526 343.421 494.409 343.356C494.11 343.189 494.113 342.865 494.266 342.648C494.474 342.605 494.681 342.563 494.888 342.517C494.889 342.505 494.89 342.493 494.892 342.481C494.898 342.484 494.906 342.489 494.914 342.493C494.924 342.499 494.933 342.504 494.942 342.509L494.902 343.528C494.854 343.537 494.806 343.547 494.758 343.555Z" fill="#24437F"/>
<path d="M494.898 343.527L494.938 342.509C495.24 342.677 495.537 342.851 495.832 343.03C495.788 343.206 495.672 343.362 495.482 343.406C495.289 343.451 495.094 343.491 494.898 343.527Z" fill="#24437F"/>
<path d="M429.864 361.551C429.636 361.551 429.455 361.397 429.39 361.195C429.663 361.076 429.747 360.944 429.747 360.944C429.747 360.944 429.848 361.176 430.167 361.445C430.08 361.511 429.972 361.551 429.864 361.551ZM429.266 356.453C429.28 356.436 429.296 356.419 429.314 356.403C429.308 356.432 429.304 356.447 429.304 356.447C429.304 356.447 429.291 356.449 429.266 356.453Z" fill="#2D5BB2"/>
<path d="M430.173 361.445C429.854 361.176 429.753 360.944 429.753 360.944C429.753 360.944 429.669 361.076 429.395 361.195C429.381 361.149 429.371 361.1 429.37 361.051C429.301 359.621 429.233 358.192 429.165 356.761C429.159 356.647 429.201 356.54 429.271 356.453C429.297 356.449 429.31 356.447 429.31 356.447C429.31 356.447 429.314 356.432 429.319 356.403C429.413 356.316 429.538 356.261 429.665 356.261C429.945 356.261 430.151 356.492 430.165 356.761C430.233 358.192 430.301 359.621 430.37 361.051C430.377 361.209 430.295 361.352 430.173 361.445Z" fill="#B87074"/>
<path d="M435.328 361.229C435.145 361.229 434.973 361.143 434.906 360.974C435.122 360.541 435.185 360.141 435.197 360.037C435.178 360.191 435.148 360.711 435.485 361.207C435.434 361.222 435.381 361.229 435.328 361.229Z" fill="#2D5BB2"/>
<path d="M435.489 361.207C435.152 360.711 435.182 360.191 435.201 360.036C435.189 360.14 435.126 360.54 434.91 360.974C434.886 360.911 434.877 360.836 434.886 360.751C435.364 356.475 436.11 352.234 437.132 348.054C437.193 347.804 437.382 347.698 437.578 347.698C437.876 347.698 438.189 347.943 438.097 348.32C437.096 352.412 436.354 356.563 435.886 360.751C435.858 361.002 435.685 361.155 435.489 361.207Z" fill="#B87074"/>
<path d="M441.924 361.707H441.204C441.189 361.692 441.176 361.678 441.164 361.662C442.035 361.155 442.063 360.502 442.063 360.502C442.105 360.704 442.173 360.886 442.264 361.048C442.169 361.24 442.073 361.432 441.976 361.623C441.96 361.655 441.943 361.682 441.924 361.707Z" fill="#2D5BB2"/>
<path d="M441.166 361.662C441.053 361.521 441.01 361.325 441.114 361.119C442.714 357.986 443.909 354.669 444.687 351.238C444.743 350.987 444.931 350.879 445.126 350.879C445.422 350.879 445.737 351.127 445.651 351.503C444.902 354.809 443.762 358.01 442.266 361.049C442.175 360.886 442.107 360.705 442.065 360.502C442.065 360.502 442.037 361.155 441.166 361.662Z" fill="#B87074"/>
<path d="M449.445 359.354C449.451 359.243 449.456 359.134 449.461 359.024C449.496 359.072 449.533 359.124 449.573 359.18C449.541 359.251 449.497 359.308 449.445 359.354Z" fill="#8898AD"/>
<path d="M449.098 359.479C449.054 359.479 449.011 359.475 448.969 359.465C449.139 358.999 449.218 358.659 449.218 358.659C449.218 358.659 449.306 358.8 449.463 359.024C449.458 359.133 449.453 359.243 449.447 359.353C449.349 359.44 449.222 359.479 449.098 359.479Z" fill="#2D5BB2"/>
<path d="M448.969 359.467C448.714 359.411 448.51 359.189 448.628 358.876C449.47 356.633 450.085 354.313 450.462 351.948C450.502 351.696 450.68 351.587 450.872 351.587C451.162 351.587 451.488 351.836 451.426 352.215C451.049 354.58 450.434 356.9 449.592 359.141C449.588 359.156 449.581 359.168 449.576 359.181C449.536 359.125 449.498 359.073 449.464 359.025C449.306 358.801 449.218 358.66 449.218 358.66C449.218 358.66 449.14 359 448.969 359.467Z" fill="#B87074"/>
<path d="M451.682 347.449C451.47 347.448 451.261 347.448 451.055 347.448C450.857 347.448 450.661 347.448 450.469 347.449C450.478 347.183 450.723 346.941 450.99 346.941C451.103 346.941 451.219 346.985 451.323 347.089C451.442 347.209 451.562 347.329 451.682 347.449Z" fill="#8898AD"/>
<path d="M456.601 353.617C456.488 353.617 456.372 353.575 456.268 353.471C454.384 351.58 452.5 349.688 450.616 347.797C450.509 347.689 450.466 347.568 450.469 347.451C450.661 347.449 450.857 347.449 451.056 347.449C451.261 347.449 451.47 347.449 451.682 347.451C453.446 349.221 455.21 350.992 456.976 352.763C457.326 353.116 456.985 353.617 456.601 353.617Z" fill="#B87074"/>
<path d="M212.055 366.002H302.81V361.103H212.055V366.002Z" fill="#406FBF"/>
<path d="M257.433 366.002H212.055V361.129C227.18 361.129 242.307 361.129 257.433 361.129V366.002Z" fill="#E6EFFA"/>
<path d="M279.75 366.002H257.43V361.129C264.552 361.129 271.678 361.129 278.802 361.129C283.918 361.129 289.034 361.129 294.15 361.129L294.124 361.345L279.75 361.621V366.002Z" fill="#97A0AA"/>
<path d="M208.602 361.104H299.358V356.204H208.602V361.104Z" fill="#406FBF"/>
<path d="M208.887 361.104H208.602V360.81C208.646 360.942 208.742 361.054 208.887 361.104ZM208.602 360.449V356.204H212.295C212.335 356.213 212.378 356.218 212.423 356.218C226.275 356.218 240.128 356.218 253.98 356.218V360.129C245.647 360.129 237.316 360.129 228.984 360.129C222.342 360.129 215.699 360.129 209.056 360.129C208.812 360.129 208.662 360.272 208.602 360.449Z" fill="#E6EFFA"/>
<path d="M294.271 360.129C280.839 360.129 267.407 360.129 253.977 360.129V356.218C263.363 356.218 272.747 356.218 282.134 356.218C286.337 356.218 290.539 356.218 294.742 356.218L294.271 360.129Z" fill="#97A0AA"/>
<path d="M212.053 361.129C211.053 361.129 210.054 361.129 209.054 361.129C208.991 361.129 208.935 361.12 208.885 361.104H212.053V361.129ZM208.599 360.81C208.561 360.696 208.561 360.565 208.599 360.449V360.81Z" fill="#6885B6"/>
<path d="M257.433 361.129C242.307 361.129 227.18 361.129 212.055 361.129V361.104H253.98H257.433V361.129Z" fill="#97A0AA"/>
<path d="M294.15 361.129C289.034 361.129 283.918 361.129 278.802 361.129C271.678 361.129 264.552 361.129 257.43 361.129V361.104H294.154L294.15 361.129Z" fill="#636B74"/>
<path d="M253.98 361.104H208.887C208.742 361.054 208.646 360.942 208.602 360.81V360.449C208.662 360.272 208.812 360.129 209.056 360.129C215.699 360.129 222.342 360.129 228.984 360.129C237.316 360.129 245.647 360.129 253.98 360.129V361.104Z" fill="#97A0AA"/>
<path d="M294.154 361.104H253.977V360.129C267.407 360.129 280.839 360.129 294.271 360.129L294.154 361.104Z" fill="#636B74"/>
<path d="M211.969 356.193H302.725V351.293H211.969V356.193Z" fill="#406FBF"/>
<path d="M212.254 356.193H211.969V355.9C212.013 356.032 212.109 356.144 212.254 356.193ZM211.969 355.539V351.293H295.339H257.347V355.219C249.011 355.219 240.677 355.219 232.341 355.219C225.702 355.219 219.062 355.219 212.422 355.219C212.179 355.219 212.029 355.361 211.969 355.539Z" fill="#E6EFFA"/>
<path d="M294.862 355.219C282.357 355.219 269.849 355.219 257.344 355.219V351.293H295.336L294.862 355.219Z" fill="#97A0AA"/>
<path d="M294.743 356.203H212.29C212.277 356.2 212.263 356.196 212.25 356.192H257.343H294.745L294.743 356.203Z" fill="#6885B6"/>
<path d="M253.974 356.219C240.122 356.219 226.269 356.219 212.417 356.219C212.372 356.219 212.329 356.213 212.289 356.204H294.742H253.974V356.219Z" fill="#97A0AA"/>
<path d="M294.742 356.219C290.539 356.219 286.337 356.219 282.134 356.219C272.747 356.219 263.363 356.219 253.977 356.219V356.204H294.745L294.742 356.219Z" fill="#636B74"/>
<path d="M211.965 355.684H211.938C211.94 355.634 211.949 355.585 211.965 355.538V355.684Z" fill="#8898AD"/>
<path d="M211.966 355.898C211.944 355.829 211.934 355.756 211.938 355.682H211.966V355.898Z" fill="#6885B6"/>
<path d="M257.347 356.193H212.254C212.109 356.144 212.013 356.032 211.969 355.9V355.539C212.029 355.361 212.179 355.219 212.422 355.219C219.062 355.219 225.702 355.219 232.341 355.219C240.677 355.219 249.011 355.219 257.347 355.219V356.193Z" fill="#97A0AA"/>
<path d="M294.745 356.193H257.344V355.219C269.849 355.219 282.357 355.219 294.862 355.219L294.745 356.193Z" fill="#636B74"/>
<path d="M253.559 379.702L217.75 585.209H224.002L267.201 379.702H253.559Z" fill="#17282F"/>
<path d="M224.002 585.209H217.75L252.439 386.125H265.798L266.777 381.641H266.793L264.907 390.609L263.234 398.572L261.793 405.428L255.934 433.301L255.85 433.696L240.025 508.984L239.955 509.317L236.786 524.389L236.717 524.722L224.002 585.209Z" fill="#9BA6A6"/>
<path d="M252.435 386.125H252.391L253.203 381.641H253.216L252.435 386.125Z" fill="#8898AD"/>
<path d="M265.796 386.125H252.438L253.219 381.641H266.775L265.796 386.125Z" fill="#646E70"/>
<path d="M204.106 381.697L168.297 585.209H174.55L217.748 381.697H204.106Z" fill="#17282F"/>
<path d="M174.55 585.209H168.297L202.986 388.064H216.345L217.736 381.697H217.748L215.856 390.609L214.166 398.572L212.71 405.428L206.794 433.301L206.71 433.696L190.729 508.984L190.658 509.317L174.55 585.209Z" fill="#9BA6A6"/>
<path d="M202.988 388.064H202.945L204.108 381.642H217.749L217.737 381.698H204.108L202.988 388.064Z" fill="#8898AD"/>
<path d="M216.343 388.064H202.984L204.104 381.698H217.734L216.343 388.064Z" fill="#646E70"/>
<path d="M562.383 380.789L598.432 585.633H592.138L548.648 380.789H562.383Z" fill="#17282F"/>
<path d="M598.439 585.633H592.144L548.836 381.642H562.539L598.439 585.633Z" fill="#9BA6A6"/>
<path d="M508.811 380.789L544.862 585.633H538.567L495.078 380.789H508.811Z" fill="#17282F"/>
<path d="M544.862 585.633H538.567L506.418 434.205L495.258 381.642H508.96L544.862 585.633Z" fill="#9BA6A6"/>
<path d="M185.953 381.643H601.67V366.338H185.953V381.643Z" fill="#B5413C"/>
<path d="M601.674 381.643H531.711V366.339H601.674V381.643Z" fill="#772828"/>
<path d="M368.93 366.338H462.158V361.707H368.93V366.338Z" fill="#17282F"/>
<path d="M462.158 366.338H368.93V361.707H462.158V365.23V366.338Z" fill="#849193"/>
<path d="M380.476 332.199C380.801 336.287 378.201 339.607 374.663 339.607H262.52C258.963 339.607 255.821 336.287 255.497 332.199L248.836 249.669C248.764 248.818 248.817 248.009 248.98 247.262C249.612 244.357 251.832 242.261 254.649 242.261H366.792C370.349 242.261 373.489 245.582 373.815 249.669L380.476 332.199Z" fill="#17282F"/>
<path d="M374.663 339.607H374.267C374.382 339.077 374.443 338.514 374.442 337.927C374.442 337.689 374.433 337.446 374.411 337.201L367.749 254.671C367.406 250.582 364.265 247.262 360.727 247.262H248.981C249.613 244.357 251.833 242.261 254.65 242.261H366.793C370.35 242.261 373.49 245.582 373.815 249.669L380.477 332.199C380.495 332.431 380.505 332.659 380.505 332.886C380.505 335.325 379.455 337.422 377.81 338.599C376.914 339.241 375.841 339.607 374.663 339.607Z" fill="#B1BABA"/>
<path d="M374.267 339.607H262.52C258.963 339.607 255.821 336.287 255.497 332.199L248.836 249.669C248.764 248.818 248.817 248.009 248.98 247.262H360.727C364.264 247.262 367.405 250.582 367.748 254.671L374.411 337.201C374.483 338.051 374.428 338.861 374.267 339.607Z" fill="#17282F"/>
<path d="M374.267 339.607H326.602C326.602 339.607 321.546 321.069 321.61 320.462L299.067 320.362L293.242 339.607H262.521C258.963 339.607 255.822 336.287 255.498 332.199L248.837 249.669C248.815 249.423 248.805 249.181 248.805 248.942C248.805 248.355 248.865 247.793 248.981 247.262H360.727C364.265 247.262 367.406 250.582 367.749 254.671L374.411 337.201C374.433 337.446 374.442 337.689 374.442 337.927C374.443 338.514 374.382 339.077 374.267 339.607Z" fill="#849193"/>
<path d="M299.067 320.362L321.61 320.462L317.247 361.069L339.391 361.414V366.195L279.75 366.338V361.621L294.125 361.345L299.067 320.362Z" fill="#17282F"/>
<path d="M326.604 339.607H319.555L321.612 320.462C321.548 321.069 326.604 339.607 326.604 339.607Z" fill="#576063"/>
<path d="M296.746 339.607H293.242L299.068 320.362L296.746 339.607Z" fill="#576063"/>
<path d="M279.75 366.338V361.621L294.125 361.345L299.067 320.362L321.61 320.462L319.553 339.607L317.247 361.069L339.391 361.414V366.195L279.75 366.338Z" fill="#9BA6A6"/>
<path d="M487.453 366.338H578.21V361.438H487.453V366.338Z" fill="#406FBF"/>
<path d="M532.832 366.338H487.453V361.465C502.58 361.465 517.706 361.465 532.832 361.465V366.338Z" fill="#CFE0F5"/>
<path d="M578.207 366.338H532.828V361.465C539.952 361.465 547.076 361.465 554.2 361.465C560.843 361.465 567.485 361.465 574.128 361.465C574.191 361.465 574.247 361.455 574.297 361.438H574.753H578.207V366.338Z" fill="#8898AD"/>
<path d="M484 361.438H574.756V356.539H484V361.438Z" fill="#406FBF"/>
<path d="M484.284 361.438H484V361.145C484.044 361.276 484.139 361.389 484.284 361.438ZM484 360.784V356.539H487.692C487.732 356.548 487.775 356.553 487.821 356.553C501.672 356.553 515.525 356.553 529.377 356.553V360.464C521.047 360.464 512.713 360.464 504.381 360.464C497.739 360.464 491.096 360.464 484.453 360.464C484.211 360.464 484.059 360.607 484 360.784Z" fill="#CFE0F5"/>
<path d="M574.754 361.438H574.298C574.766 361.28 574.711 360.464 574.128 360.464C559.21 360.464 544.294 360.464 529.375 360.464V356.553C538.762 356.553 548.147 356.553 557.534 356.553C563.274 356.553 569.014 356.553 574.754 356.553V361.438Z" fill="#8898AD"/>
<path d="M487.451 361.465C486.451 361.465 485.452 361.465 484.452 361.465C484.389 361.465 484.333 361.456 484.283 361.438H487.451V361.465ZM483.999 361.146C483.959 361.03 483.959 360.9 483.999 360.785V361.146Z" fill="#2D5BB2"/>
<path d="M532.832 361.465C517.706 361.465 502.58 361.465 487.453 361.465V361.438H529.378H532.832V361.465Z" fill="#8898AD"/>
<path d="M574.128 361.465C567.485 361.465 560.843 361.465 554.2 361.465C547.076 361.465 539.952 361.465 532.828 361.465V361.438H574.297C574.247 361.456 574.191 361.465 574.128 361.465Z" fill="#596676"/>
<path d="M529.377 361.438H484.284C484.139 361.389 484.044 361.276 484 361.145V360.784C484.059 360.607 484.211 360.464 484.453 360.464C491.096 360.464 497.739 360.464 504.381 360.464C512.713 360.464 521.047 360.464 529.377 360.464V361.438Z" fill="#8898AD"/>
<path d="M574.298 361.438H529.375V360.464C544.294 360.464 559.21 360.464 574.128 360.464C574.711 360.464 574.766 361.28 574.298 361.438Z" fill="#596676"/>
<path d="M487.367 356.527H578.125V351.628H487.367V356.527Z" fill="#406FBF"/>
<path d="M487.653 356.527H487.367V356.235C487.413 356.366 487.507 356.478 487.653 356.527ZM487.367 355.874V351.629H578.125H532.746V355.554C524.41 355.554 516.075 355.554 507.741 355.554C501.101 355.554 494.461 355.554 487.822 355.554C487.579 355.554 487.427 355.697 487.367 355.874Z" fill="#CFE0F5"/>
<path d="M578.121 356.527H577.619C578.087 356.37 578.033 355.554 577.45 355.554C562.547 355.554 547.645 355.554 532.742 355.554V351.629H578.121V356.527Z" fill="#8898AD"/>
<path d="M577.454 356.555C576.555 356.555 575.655 356.555 574.756 356.555V356.54H551.375L551.378 356.528H577.623C577.572 356.545 577.516 356.555 577.454 356.555Z" fill="#A7A9A8"/>
<path d="M544.262 356.539H515.469C515.47 356.535 515.47 356.531 515.471 356.527H532.742H544.265L544.262 356.539Z" fill="#24437F"/>
<path d="M551.375 356.539H544.266L544.268 356.527H551.378L551.375 356.539Z" fill="#1D2D51"/>
<path d="M515.468 356.539H487.688C487.675 356.535 487.662 356.531 487.648 356.527H515.471C515.47 356.531 515.47 356.535 515.468 356.539Z" fill="#2D5BB2"/>
<path d="M529.373 356.555C515.521 356.555 501.667 356.555 487.817 356.555C487.77 356.555 487.727 356.549 487.688 356.54H574.751H529.373V356.555Z" fill="#8898AD"/>
<path d="M487.365 356.234C487.326 356.118 487.326 355.988 487.365 355.873V356.234Z" fill="#2D5BB2"/>
<path d="M574.754 356.555C569.014 356.555 563.274 356.555 557.534 356.555C548.147 356.555 538.762 356.555 529.375 356.555V356.54H574.754V356.555Z" fill="#596676"/>
<path d="M532.746 356.527H487.653C487.507 356.478 487.413 356.366 487.367 356.235V355.874C487.427 355.697 487.579 355.554 487.822 355.554C494.461 355.554 501.101 355.554 507.741 355.554C516.075 355.554 524.41 355.554 532.746 355.554V356.527Z" fill="#8898AD"/>
<path d="M577.619 356.527H532.742V355.554C547.645 355.554 562.547 355.554 577.45 355.554C578.033 355.554 578.087 356.37 577.619 356.527Z" fill="#596676"/>
<path d="M113.688 523.459C110.093 523.263 106.7 521.512 104.051 519.076C101.401 516.639 99.4327 513.547 97.8056 510.336C93.4843 501.81 91.3947 492.163 91.7994 482.611C91.8864 480.564 92.0988 478.471 92.9786 476.62C93.8578 474.768 95.5218 473.179 97.5504 472.887C100.58 472.45 103.222 474.871 105.147 477.251C113.883 488.055 118.376 502.202 117.476 516.067C117.255 519.461 116.123 522.738 113.688 523.459Z" fill="#406FBF"/>
<path d="M129.765 504.674C126.808 498.533 126.591 491.257 128.545 484.728C130.499 478.198 134.513 472.397 139.486 467.736C144.938 462.625 151.941 458.698 159.414 458.658C162.601 458.642 166.05 459.497 168.006 462.013C170.089 464.69 169.917 468.498 169.004 471.765C167.506 477.114 164.332 481.876 160.54 485.934C156.748 489.993 152.333 493.412 147.929 496.798C142.966 500.614 137.605 504.565 131.363 505.041" fill="#406FBF"/>
<path d="M130.211 525.395C131.091 518.495 136.45 512.79 142.717 509.773C148.985 506.755 156.085 506.014 163.031 505.667C164.578 505.59 166.162 505.534 167.641 505.994C169.121 506.454 170.498 507.533 170.895 509.03C171.415 510.991 170.171 512.958 168.873 514.517C161.262 523.653 149.354 529.045 137.467 528.74C136.093 528.705 134.691 528.591 133.421 528.064C132.151 527.536 131.016 526.531 130.634 525.21" fill="#406FBF"/>
<path d="M97.6251 478.255C105.911 498.506 112.56 519.414 117.45 540.742C118.83 546.761 120.067 552.812 121.172 558.888C121.286 559.521 122.25 559.254 122.136 558.623C118.222 537.096 112.574 515.895 105.219 495.287C103.142 489.471 100.928 483.704 98.5893 477.988C98.3486 477.402 97.3809 477.659 97.6251 478.255Z" fill="#17282F"/>
<path d="M122.617 550.6C122.214 538.104 123.202 525.495 126.711 513.452C130.186 501.522 136.184 490.458 144.44 481.159C149.688 475.247 155.739 470.113 162.252 465.649C162.78 465.288 162.28 464.42 161.748 464.785C150.568 472.447 140.821 482.134 133.973 493.891C127.795 504.498 124.171 516.364 122.578 528.501C121.617 535.825 121.379 543.222 121.617 550.6C121.638 551.241 122.638 551.244 122.617 550.6Z" fill="#17282F"/>
<path d="M122.991 533.395C132.825 521.973 146.542 514.043 161.392 511.395C162.024 511.281 161.756 510.317 161.126 510.431C146.128 513.105 132.216 521.152 122.284 532.686C121.866 533.172 122.571 533.883 122.991 533.395Z" fill="#17282F"/>
<path d="M102.586 549.849V534.913H144.194V549.849C144.194 549.849 144.994 576.254 130.325 578.654H123.39H116.455C101.786 576.254 102.586 549.849 102.586 549.849Z" fill="#17282F"/>
</g>
<defs>
<clipPath id="clip0_445_1881">
<rect width="666.667" height="599.947" fill="white"/>
</clipPath>
</defs>
</svg>
